<svg width="84" height="84" viewBox="0 0 84 84" fill="none" xmlns="http://www.w3.org/2000/svg">
<path id="email" fill-rule="evenodd" clip-rule="evenodd" d="M41.849 0.333374C18.849 0.333374 0.182373 19 0.182373 42C0.182373 65 18.849 83.6667 41.849 83.6667H62.6824V75.3334H41.849C23.7657 75.3334 8.51571 60.0834 8.51571 42C8.51571 23.9167 23.7657 8.66671 41.849 8.66671C59.9324 8.66671 75.1824 23.9167 75.1824 42V47.9584C75.1824 51.25 72.224 54.5 68.9324 54.5C65.6407 54.5 62.6824 51.25 62.6824 47.9584V42C62.6824 30.5 53.349 21.1667 41.849 21.1667C30.349 21.1667 21.0157 30.5 21.0157 42C21.0157 53.5 30.349 62.8334 41.849 62.8334C47.599 62.8334 52.849 60.5 56.599 56.7084C59.3074 60.4167 63.974 62.8334 68.9324 62.8334C77.1407 62.8334 83.5157 56.1667 83.5157 47.9584V42C83.5157 19 64.849 0.333374 41.849 0.333374ZM41.849 54.5C34.9324 54.5 29.349 48.9167 29.349 42C29.349 35.0834 34.9324 29.5 41.849 29.5C48.7657 29.5 54.349 35.0834 54.349 42C54.349 48.9167 48.7657 54.5 41.849 54.5Z" fill="white"/>
</svg>
