<svg width="97" height="96" viewBox="0 0 97 96" fill="none" xmlns="http://www.w3.org/2000/svg">
<path id="github" fill-rule="evenodd" clip-rule="evenodd" d="M59.8635 95.928C93.2315 94.9641 96.5155 87.94 96.5155 48.064C96.5155 4.06397 92.5155 0.0639648 48.5155 0.0639648C4.51561 0.0639648 0.515625 4.06397 0.515625 48.064C0.515625 88.0441 3.81961 95.0001 37.4275 95.9361C37.7195 95.5721 37.8275 95.116 37.8275 94.652C37.8275 93.652 37.7875 83.388 37.7675 79.856C25.6196 82.412 23.0556 74.18 23.0556 74.18C21.0676 69.292 18.2036 67.988 18.2036 67.988C14.2396 65.364 18.5036 65.416 18.5036 65.416C22.8876 65.716 25.1956 69.7801 25.1956 69.7801C29.0916 76.2481 35.4196 74.3801 37.9075 73.2961C38.3035 70.564 39.4315 68.696 40.6795 67.64C30.9796 66.572 20.7836 62.94 20.7836 46.72C20.7836 42.1 22.4876 38.324 25.2796 35.364C24.8276 34.292 23.3316 29.988 25.7076 24.164C25.7076 24.164 29.3756 23.024 37.7195 28.5C41.2035 27.56 44.9395 27.092 48.6555 27.076C52.3635 27.092 56.0995 27.56 59.5915 28.5C67.9315 23.024 71.5915 24.164 71.5915 24.164C73.9755 29.988 72.4755 34.292 72.0235 35.364C74.8235 38.324 76.5155 42.1 76.5155 46.72C76.5155 62.98 66.3035 66.5601 56.5715 67.604C58.1395 68.912 59.5355 71.496 59.5355 75.444C59.5355 79.228 59.5115 85.9201 59.4955 90.356C59.4875 92.552 59.4835 94.192 59.4835 94.652C59.4835 95.088 59.5995 95.548 59.8635 95.928Z" fill="white"/>
</svg>
