<svg width="101" height="100" viewBox="0 0 101 100" fill="none" xmlns="http://www.w3.org/2000/svg">
<path d="M50.5156 0C36.9322 0 35.2366 0.0625 29.9031 0.3C24.5781 0.55 20.9531 1.3875 17.7656 2.625C14.4781 3.9 11.6865 5.6125 8.90728 8.39166C6.12812 11.1708 4.41147 13.9583 3.14062 17.25C1.90312 20.4375 1.06146 24.0625 0.815625 29.3875C0.565625 34.7209 0.515625 36.4166 0.515625 50C0.515625 63.5834 0.578125 65.2791 0.815625 70.6125C1.06563 75.9334 1.90312 79.5625 3.14062 82.75C4.41562 86.0334 6.12812 88.8291 8.90728 91.6084C11.6865 94.3834 14.474 96.1041 17.7656 97.375C20.9573 98.6084 24.5823 99.4541 29.9031 99.7C35.2366 99.95 36.9322 100 50.5156 100C64.0991 100 65.7947 99.9375 71.1281 99.7C76.4491 99.45 80.0781 98.6084 83.2656 97.375C86.5491 96.1 89.3447 94.3834 92.1241 91.6084C94.8991 88.8291 96.6197 86.0459 97.8906 82.75C99.1241 79.5625 99.9697 75.9334 100.216 70.6125C100.466 65.2791 100.516 63.5834 100.516 50C100.516 36.4166 100.453 34.7209 100.216 29.3875C99.9656 24.0667 99.1241 20.4333 97.8906 17.25C96.6156 13.9625 94.8991 11.1708 92.1241 8.39166C89.3447 5.6125 86.5616 3.89584 83.2656 2.625C80.0781 1.3875 76.4491 0.545834 71.1281 0.3C65.7947 0.05 64.0991 0 50.5156 0ZM50.5156 9C63.8616 9 65.4531 9.06666 70.7241 9.29584C75.5991 9.525 78.2447 10.3333 80.0031 11.025C82.3447 11.9292 84.0031 13.0125 85.7616 14.7583C87.5072 16.5083 88.5906 18.1708 89.4947 20.5125C90.1781 22.2708 90.9947 24.9167 91.2156 29.7917C91.4531 35.0666 91.5072 36.65 91.5072 50C91.5072 63.35 91.4447 64.9375 91.1991 70.2084C90.9447 75.0834 90.1322 77.7291 89.4447 79.4875C88.5116 81.8291 87.4491 83.4875 85.6991 85.2459C83.9531 86.9916 82.2656 88.075 79.9491 88.9791C78.1991 89.6625 75.5116 90.4791 70.6366 90.7C65.3281 90.9375 63.7656 90.9916 50.3906 90.9916C37.0116 90.9916 35.4491 90.9291 30.1448 90.6834C25.2656 90.4291 22.5781 89.6166 20.8281 88.9291C18.4573 87.9959 16.8281 86.9334 15.0823 85.1834C13.3281 83.4375 12.2073 81.75 11.3323 79.4334C10.6448 77.6834 9.83647 74.9959 9.58228 70.1209C9.39478 64.8709 9.32812 63.25 9.32812 49.9375C9.32812 36.6209 9.39478 34.9959 9.58228 29.6833C9.83647 24.8083 10.6448 22.125 11.3323 20.375C12.2073 18 13.3281 16.375 15.0823 14.6208C16.8281 12.875 18.4573 11.75 20.8281 10.8792C22.5781 10.1875 25.2073 9.375 30.0823 9.125C35.3947 8.9375 36.9572 8.875 50.3281 8.875L50.5156 9ZM50.5156 24.325C36.3281 24.325 24.8406 35.825 24.8406 50C24.8406 64.1875 36.3406 75.675 50.5156 75.675C64.7031 75.675 76.1906 64.175 76.1906 50C76.1906 35.8125 64.6906 24.325 50.5156 24.325ZM50.5156 66.6666C41.3072 66.6666 33.8491 59.2084 33.8491 50C33.8491 40.7916 41.3072 33.3334 50.5156 33.3334C59.7241 33.3334 67.1822 40.7916 67.1822 50C67.1822 59.2084 59.7241 66.6666 50.5156 66.6666ZM83.2072 23.3125C83.2072 26.625 80.5156 29.3125 77.2072 29.3125C73.8947 29.3125 71.2072 26.6208 71.2072 23.3125C71.2072 20.0042 73.8991 17.3167 77.2072 17.3167C80.5116 17.3125 83.2072 20.0042 83.2072 23.3125Z" fill="white"/>
</svg>
