<svg width="75" height="74" viewBox="0 0 75 74" fill="none" xmlns="http://www.w3.org/2000/svg">
<path d="M67.5158 0.333374H7.51579C3.83245 0.333374 0.849121 3.31671 0.849121 7.00004V67C0.849121 70.6834 3.83245 73.6667 7.51579 73.6667H67.5158C71.1991 73.6667 74.1825 70.6834 74.1825 67V7.00004C74.1825 3.31671 71.1991 0.333374 67.5158 0.333374ZM24.0291 60.3334H14.1958V28.6934H24.0291V60.3334ZM19.0125 24.17C15.8425 24.17 13.2791 21.6 13.2791 18.4367C13.2791 15.2734 15.8458 12.7067 19.0125 12.7067C22.1725 12.7067 24.7425 15.2767 24.7425 18.4367C24.7425 21.6 22.1725 24.17 19.0125 24.17ZM60.8625 60.3334H51.0358V44.9467C51.0358 41.2767 50.9691 36.5567 45.9258 36.5567C40.8091 36.5567 40.0225 40.5534 40.0225 44.68V60.3334H30.1958V28.6934H39.6291V33.0167H39.7625C41.0758 30.53 44.2825 27.9067 49.0658 27.9067C59.0225 27.9067 60.8625 34.46 60.8625 42.98V60.3334Z" fill="white"/>
</svg>
