<svg width="100" height="98" viewBox="0 0 100 98" fill="none" xmlns="http://www.w3.org/2000/svg">
<path fill-rule="evenodd" clip-rule="evenodd" d="M50 0.324951C22.3571 0.324951 0 15.975 0 35.325C0 56.1749 31.5714 84.925 44.5714 95.875C47.4286 98.275 52.6429 98.275 55.5 95.875C68.4286 84.925 100 56.1749 100 35.325C100 15.975 77.6429 0.324951 50 0.324951ZM50 47.825C40.1429 47.825 32.1429 42.225 32.1429 35.325C32.1429 28.425 40.1429 22.825 50 22.825C59.8571 22.825 67.8571 28.425 67.8571 35.325C67.8571 42.225 59.8571 47.825 50 47.825Z" fill="white"/>
</svg>
