<svg width="75" height="76" viewBox="0 0 75 76" fill="none" xmlns="http://www.w3.org/2000/svg">
<path id="telefone" fill-rule="evenodd" clip-rule="evenodd" d="M67.5153 51.6174L56.932 50.409C54.3903 50.1174 51.8903 50.9924 50.0986 52.784L42.432 60.4507C30.6403 54.4507 20.9736 44.8257 14.9736 32.9924L22.682 25.284C24.4736 23.4923 25.3486 20.9924 25.057 18.4507L23.8486 7.95069C23.3486 3.74235 19.807 0.575684 15.557 0.575684H8.34864C3.64031 0.575684 -0.276361 4.49235 0.0153062 9.20068C2.22364 44.784 30.682 73.2007 66.2236 75.409C70.932 75.7007 74.8486 71.784 74.8486 67.0757V59.8674C74.8903 55.659 71.7236 52.1174 67.5153 51.6174Z" fill="white"/>
</svg>
