<svg width="650" height="480" viewBox="0 0 650 480" fill="none" xmlns="http://www.w3.org/2000/svg">
<g clip-path="url(#clip0_50_52)">
<path d="M378.624 84.6184C390.806 84.6184 400.682 74.5913 400.682 62.2223C400.682 49.8532 390.806 39.8261 378.624 39.8261C366.442 39.8261 356.566 49.8532 356.566 62.2223C356.566 74.5913 366.442 84.6184 378.624 84.6184Z" fill="#262626"/>
<path d="M549.733 417.003C582.519 391.647 598.179 349.04 588.375 308.395C588.132 307.385 587.874 306.377 587.604 305.372C581.104 281.246 565.025 258.316 541.59 250.607C521.912 244.134 500.433 249.112 479.904 246.538C439.606 241.485 408.363 208.378 386.38 173.715C364.396 139.052 347.501 100.252 318.29 71.6149C270.141 24.4121 191.596 14.2493 131.898 44.9748C72.1992 75.7004 34.1718 143.868 35.7936 211.805C37.4154 279.742 77.1373 344.695 134.823 379.156C156.015 391.816 180.525 400.784 204.917 397.646C226.082 394.923 245.313 383.376 266.379 379.948C299.499 374.558 332.407 389.763 361.053 407.48C389.699 425.198 417.369 446.198 449.922 454.412C481.53 462.388 520.689 439.463 549.733 417.003Z" fill="#262626"/>
<path d="M502.627 46.4015C501.908 45.915 501.181 45.4536 500.463 44.9839C479.687 31.4927 457.418 20.5326 434.118 12.3301L428.715 88.0051H394.464V1.28331C392.308 0.830364 390.136 0.402585 387.963 -3.05176e-05V88.0051H347.26C324.853 88.0051 303.364 78.9673 287.52 62.88C271.675 46.7928 262.774 24.9737 262.774 2.22284V2.22276C260.593 2.70087 258.429 3.21253 256.264 3.75774V88.0051H223.113L217.966 15.8446C194.021 25.1688 171.288 37.4305 150.274 52.3568C149.911 52.6085 149.547 52.8685 149.192 53.1201C147.367 54.4202 145.566 55.7455 143.773 57.0876V345.788H241.477L239.75 321.505L230.25 188.181H421.569L412.069 321.505L410.342 345.788H506.964V49.3204C505.527 48.3307 504.081 47.3577 502.627 46.4015ZM256.264 166.163H228.681L223.583 94.6147H256.264V166.163ZM387.963 166.163H341.635V164.745C341.635 164.064 341.502 163.389 341.245 162.76C340.988 162.13 340.611 161.558 340.136 161.077C339.661 160.595 339.098 160.214 338.477 159.954C337.857 159.694 337.192 159.561 336.521 159.562H316.38C315.71 159.561 315.046 159.695 314.426 159.956C313.807 160.216 313.244 160.598 312.77 161.079C312.296 161.561 311.92 162.132 311.663 162.761C311.407 163.39 311.275 164.065 311.275 164.745V166.163H262.774V94.6147H387.963V166.163ZM394.464 166.163V94.6147H428.244L423.147 166.163H394.464Z" fill="#6A6A6A"/>
<path d="M0 364.276C7.17663 372.91 14.939 381.024 23.2302 388.558L626.77 389.397C635.061 381.863 642.823 373.748 650 365.114L0 364.276Z" fill="#6A6A6A"/>
<path d="M409.28 286.521V358.408C409.28 359.324 409.639 360.202 410.277 360.85C410.915 361.498 411.78 361.862 412.683 361.863H517.602C518.505 361.862 519.37 361.498 520.008 360.85C520.646 360.202 521.004 359.324 521.005 358.408V286.521C521.003 285.606 520.644 284.728 520.006 284.082C519.368 283.435 518.504 283.071 517.602 283.07H412.683C411.781 283.071 410.917 283.435 410.279 284.082C409.641 284.729 409.282 285.606 409.28 286.521Z" fill="#3F3D56"/>
<path d="M411.741 287.415V357.521C411.742 358.011 411.934 358.48 412.275 358.826C412.616 359.172 413.078 359.367 413.56 359.368H516.729C517.211 359.367 517.673 359.172 518.014 358.826C518.355 358.48 518.547 358.011 518.548 357.521V287.415C518.548 286.925 518.356 286.455 518.015 286.108C517.674 285.762 517.212 285.566 516.729 285.565H413.56C413.077 285.566 412.615 285.762 412.274 286.108C411.933 286.455 411.741 286.925 411.741 287.415Z" fill="#DFDFE2"/>
<path d="M407.085 372.428C407.278 372.673 407.522 372.87 407.8 373.005C408.078 373.14 408.383 373.209 408.691 373.208H521.035C521.343 373.207 521.646 373.138 521.923 373.003C522.2 372.869 522.445 372.673 522.638 372.431C522.832 372.189 522.97 371.906 523.042 371.603C523.114 371.299 523.119 370.984 523.056 370.678L521.312 362.268C521.24 361.925 521.084 361.605 520.859 361.339C520.635 361.073 520.348 360.868 520.025 360.743C519.791 360.65 519.542 360.602 519.291 360.602H410.428C410.177 360.602 409.928 360.65 409.694 360.743C409.372 360.868 409.085 361.073 408.86 361.339C408.635 361.605 408.479 361.925 408.407 362.268L406.663 370.678C406.601 370.983 406.607 371.299 406.68 371.601C406.753 371.904 406.891 372.186 407.085 372.428Z" fill="#2F2E41"/>
<path d="M515.437 364.225H518.09C518.313 364.225 518.493 364.042 518.493 363.816V362.527C518.493 362.3 518.313 362.117 518.09 362.117H515.437C515.214 362.117 515.033 362.3 515.033 362.527V363.816C515.033 364.042 515.214 364.225 515.437 364.225Z" fill="#3F3D56"/>
<path d="M508.516 364.225H511.17C511.393 364.225 511.573 364.042 511.573 363.816V362.527C511.573 362.3 511.393 362.117 511.17 362.117H508.516C508.294 362.117 508.113 362.3 508.113 362.527V363.816C508.113 364.042 508.294 364.225 508.516 364.225Z" fill="#3F3D56"/>
<path d="M501.596 364.225H504.25C504.472 364.225 504.653 364.042 504.653 363.816V362.527C504.653 362.3 504.472 362.117 504.25 362.117H501.596C501.373 362.117 501.193 362.3 501.193 362.527V363.816C501.193 364.042 501.373 364.225 501.596 364.225Z" fill="#3F3D56"/>
<path d="M494.676 364.225H497.329C497.552 364.225 497.732 364.042 497.732 363.816V362.527C497.732 362.3 497.552 362.117 497.329 362.117H494.676C494.453 362.117 494.272 362.3 494.272 362.527V363.816C494.272 364.042 494.453 364.225 494.676 364.225Z" fill="#3F3D56"/>
<path d="M487.755 364.225H490.409C490.632 364.225 490.812 364.042 490.812 363.816V362.527C490.812 362.3 490.632 362.117 490.409 362.117H487.755C487.533 362.117 487.352 362.3 487.352 362.527V363.816C487.352 364.042 487.533 364.225 487.755 364.225Z" fill="#3F3D56"/>
<path d="M480.835 364.225H483.489C483.711 364.225 483.892 364.042 483.892 363.816V362.527C483.892 362.3 483.711 362.117 483.489 362.117H480.835C480.612 362.117 480.432 362.3 480.432 362.527V363.816C480.432 364.042 480.612 364.225 480.835 364.225Z" fill="#3F3D56"/>
<path d="M473.915 364.225H476.568C476.791 364.225 476.972 364.042 476.972 363.816V362.527C476.972 362.3 476.791 362.117 476.568 362.117H473.915C473.692 362.117 473.512 362.3 473.512 362.527V363.816C473.512 364.042 473.692 364.225 473.915 364.225Z" fill="#3F3D56"/>
<path d="M466.994 364.225H469.648C469.871 364.225 470.051 364.042 470.051 363.816V362.527C470.051 362.3 469.871 362.117 469.648 362.117H466.994C466.772 362.117 466.591 362.3 466.591 362.527V363.816C466.591 364.042 466.772 364.225 466.994 364.225Z" fill="#3F3D56"/>
<path d="M460.074 364.225H462.728C462.95 364.225 463.131 364.042 463.131 363.816V362.527C463.131 362.3 462.95 362.117 462.728 362.117H460.074C459.851 362.117 459.671 362.3 459.671 362.527V363.816C459.671 364.042 459.851 364.225 460.074 364.225Z" fill="#3F3D56"/>
<path d="M453.154 364.225H455.807C456.03 364.225 456.211 364.042 456.211 363.816V362.527C456.211 362.3 456.03 362.117 455.807 362.117H453.154C452.931 362.117 452.75 362.3 452.75 362.527V363.816C452.75 364.042 452.931 364.225 453.154 364.225Z" fill="#3F3D56"/>
<path d="M446.233 364.225H448.887C449.11 364.225 449.29 364.042 449.29 363.816V362.527C449.29 362.3 449.11 362.117 448.887 362.117H446.233C446.011 362.117 445.83 362.3 445.83 362.527V363.816C445.83 364.042 446.011 364.225 446.233 364.225Z" fill="#3F3D56"/>
<path d="M439.313 364.225H441.967C442.19 364.225 442.37 364.042 442.37 363.816V362.527C442.37 362.3 442.19 362.117 441.967 362.117H439.313C439.091 362.117 438.91 362.3 438.91 362.527V363.816C438.91 364.042 439.091 364.225 439.313 364.225Z" fill="#3F3D56"/>
<path d="M432.393 364.225H435.046C435.269 364.225 435.45 364.042 435.45 363.816V362.527C435.45 362.3 435.269 362.117 435.046 362.117H432.393C432.17 362.117 431.99 362.3 431.99 362.527V363.816C431.99 364.042 432.17 364.225 432.393 364.225Z" fill="#3F3D56"/>
<path d="M425.472 364.225H428.126C428.349 364.225 428.529 364.042 428.529 363.816V362.527C428.529 362.3 428.349 362.117 428.126 362.117H425.472C425.25 362.117 425.069 362.3 425.069 362.527V363.816C425.069 364.042 425.25 364.225 425.472 364.225Z" fill="#3F3D56"/>
<path d="M418.552 364.225H421.206C421.429 364.225 421.609 364.042 421.609 363.816V362.527C421.609 362.3 421.429 362.117 421.206 362.117H418.552C418.33 362.117 418.149 362.3 418.149 362.527V363.816C418.149 364.042 418.33 364.225 418.552 364.225Z" fill="#3F3D56"/>
<path d="M411.632 364.225H414.285C414.508 364.225 414.689 364.042 414.689 363.816V362.527C414.689 362.3 414.508 362.117 414.285 362.117H411.632C411.409 362.117 411.229 362.3 411.229 362.527V363.816C411.229 364.042 411.409 364.225 411.632 364.225Z" fill="#3F3D56"/>
<path d="M515.518 367.738H518.172C518.395 367.738 518.575 367.555 518.575 367.329V366.04C518.575 365.814 518.395 365.63 518.172 365.63H515.518C515.296 365.63 515.115 365.814 515.115 366.04V367.329C515.115 367.555 515.296 367.738 515.518 367.738Z" fill="#3F3D56"/>
<path d="M508.598 367.738H511.252C511.474 367.738 511.655 367.555 511.655 367.329V366.04C511.655 365.814 511.474 365.63 511.252 365.63H508.598C508.375 365.63 508.195 365.814 508.195 366.04V367.329C508.195 367.555 508.375 367.738 508.598 367.738Z" fill="#3F3D56"/>
<path d="M501.678 367.738H504.331C504.554 367.738 504.735 367.555 504.735 367.329V366.04C504.735 365.814 504.554 365.63 504.331 365.63H501.678C501.455 365.63 501.274 365.814 501.274 366.04V367.329C501.274 367.555 501.455 367.738 501.678 367.738Z" fill="#3F3D56"/>
<path d="M494.757 367.738H497.411C497.634 367.738 497.814 367.555 497.814 367.329V366.04C497.814 365.814 497.634 365.63 497.411 365.63H494.757C494.535 365.63 494.354 365.814 494.354 366.04V367.329C494.354 367.555 494.535 367.738 494.757 367.738Z" fill="#3F3D56"/>
<path d="M487.837 367.738H490.491C490.714 367.738 490.894 367.555 490.894 367.329V366.04C490.894 365.814 490.714 365.63 490.491 365.63H487.837C487.614 365.63 487.434 365.814 487.434 366.04V367.329C487.434 367.555 487.614 367.738 487.837 367.738Z" fill="#3F3D56"/>
<path d="M480.917 367.738H483.57C483.793 367.738 483.974 367.555 483.974 367.329V366.04C483.974 365.814 483.793 365.63 483.57 365.63H480.917C480.694 365.63 480.513 365.814 480.513 366.04V367.329C480.513 367.555 480.694 367.738 480.917 367.738Z" fill="#3F3D56"/>
<path d="M473.996 367.738H476.65C476.873 367.738 477.053 367.555 477.053 367.329V366.04C477.053 365.814 476.873 365.63 476.65 365.63H473.996C473.774 365.63 473.593 365.814 473.593 366.04V367.329C473.593 367.555 473.774 367.738 473.996 367.738Z" fill="#3F3D56"/>
<path d="M467.076 367.738H469.73C469.952 367.738 470.133 367.555 470.133 367.329V366.04C470.133 365.814 469.952 365.63 469.73 365.63H467.076C466.853 365.63 466.673 365.814 466.673 366.04V367.329C466.673 367.555 466.853 367.738 467.076 367.738Z" fill="#3F3D56"/>
<path d="M460.156 367.738H462.809C463.032 367.738 463.213 367.555 463.213 367.329V366.04C463.213 365.814 463.032 365.63 462.809 365.63H460.156C459.933 365.63 459.753 365.814 459.753 366.04V367.329C459.753 367.555 459.933 367.738 460.156 367.738Z" fill="#3F3D56"/>
<path d="M453.236 367.738H455.889C456.112 367.738 456.292 367.555 456.292 367.329V366.04C456.292 365.814 456.112 365.63 455.889 365.63H453.236C453.013 365.63 452.832 365.814 452.832 366.04V367.329C452.832 367.555 453.013 367.738 453.236 367.738Z" fill="#3F3D56"/>
<path d="M446.315 367.738H448.969C449.192 367.738 449.372 367.555 449.372 367.329V366.04C449.372 365.814 449.192 365.63 448.969 365.63H446.315C446.093 365.63 445.912 365.814 445.912 366.04V367.329C445.912 367.555 446.093 367.738 446.315 367.738Z" fill="#3F3D56"/>
<path d="M439.395 367.738H442.049C442.271 367.738 442.452 367.555 442.452 367.329V366.04C442.452 365.814 442.271 365.63 442.049 365.63H439.395C439.172 365.63 438.992 365.814 438.992 366.04V367.329C438.992 367.555 439.172 367.738 439.395 367.738Z" fill="#3F3D56"/>
<path d="M432.475 367.738H435.128C435.351 367.738 435.531 367.555 435.531 367.329V366.04C435.531 365.814 435.351 365.63 435.128 365.63H432.475C432.252 365.63 432.071 365.814 432.071 366.04V367.329C432.071 367.555 432.252 367.738 432.475 367.738Z" fill="#3F3D56"/>
<path d="M425.554 367.738H428.208C428.431 367.738 428.611 367.555 428.611 367.329V366.04C428.611 365.814 428.431 365.63 428.208 365.63H425.554C425.332 365.63 425.151 365.814 425.151 366.04V367.329C425.151 367.555 425.332 367.738 425.554 367.738Z" fill="#3F3D56"/>
<path d="M418.634 367.738H421.288C421.51 367.738 421.691 367.555 421.691 367.329V366.04C421.691 365.814 421.51 365.63 421.288 365.63H418.634C418.411 365.63 418.231 365.814 418.231 366.04V367.329C418.231 367.555 418.411 367.738 418.634 367.738Z" fill="#3F3D56"/>
<path d="M411.714 367.738H414.367C414.59 367.738 414.771 367.555 414.771 367.329V366.04C414.771 365.814 414.59 365.63 414.367 365.63H411.714C411.491 365.63 411.31 365.814 411.31 366.04V367.329C411.31 367.555 411.491 367.738 411.714 367.738Z" fill="#3F3D56"/>
<path d="M458.08 371.954H484.954C485.177 371.954 485.358 371.771 485.358 371.545V370.256C485.358 370.03 485.177 369.846 484.954 369.846H458.08C457.857 369.846 457.676 370.03 457.676 370.256V371.545C457.676 371.771 457.857 371.954 458.08 371.954Z" fill="#3F3D56"/>
<path d="M429.607 300.903H427.258C426.545 300.903 425.968 301.489 425.968 302.212C425.968 302.935 426.545 303.521 427.258 303.521H429.607C430.319 303.521 430.896 302.935 430.896 302.212C430.896 301.489 430.319 300.903 429.607 300.903Z" fill="#7C7B76"/>
<path d="M456.475 300.903H454.125C453.413 300.903 452.836 301.489 452.836 302.212C452.836 302.935 453.413 303.521 454.125 303.521H456.475C457.187 303.521 457.764 302.935 457.764 302.212C457.764 301.489 457.187 300.903 456.475 300.903Z" fill="#7C7B76"/>
<path d="M464.087 300.903H461.738C461.026 300.903 460.448 301.489 460.448 302.212C460.448 302.935 461.026 303.521 461.738 303.521H464.087C464.799 303.521 465.377 302.935 465.377 302.212C465.377 301.489 464.799 300.903 464.087 300.903Z" fill="#7C7B76"/>
<path d="M449.166 300.684H434.566C433.854 300.684 433.276 301.27 433.276 301.994C433.276 302.717 433.854 303.303 434.566 303.303H449.166C449.879 303.303 450.456 302.717 450.456 301.994C450.456 301.27 449.879 300.684 449.166 300.684Z" fill="#7C7B76"/>
<path d="M484.99 300.684H470.389C469.677 300.684 469.1 301.27 469.1 301.994C469.1 302.717 469.677 303.303 470.389 303.303H484.99C485.702 303.303 486.28 302.717 486.28 301.994C486.28 301.27 485.702 300.684 484.99 300.684Z" fill="#7C7B76"/>
<path d="M436.772 306.813H434.422C433.71 306.813 433.133 307.399 433.133 308.123C433.133 308.846 433.71 309.432 434.422 309.432H436.772C437.484 309.432 438.061 308.846 438.061 308.123C438.061 307.399 437.484 306.813 436.772 306.813Z" fill="#7C7B76"/>
<path d="M463.639 306.813H461.29C460.578 306.813 460 307.399 460 308.123C460 308.846 460.578 309.432 461.29 309.432H463.639C464.351 309.432 464.929 308.846 464.929 308.123C464.929 307.399 464.351 306.813 463.639 306.813Z" fill="#7C7B76"/>
<path d="M471.252 306.813H468.902C468.19 306.813 467.613 307.399 467.613 308.123C467.613 308.846 468.19 309.432 468.902 309.432H471.252C471.964 309.432 472.541 308.846 472.541 308.123C472.541 307.399 471.964 306.813 471.252 306.813Z" fill="#7C7B76"/>
<path d="M456.331 306.595H441.731C441.018 306.595 440.441 307.181 440.441 307.904C440.441 308.627 441.018 309.214 441.731 309.214H456.331C457.043 309.214 457.621 308.627 457.621 307.904C457.621 307.181 457.043 306.595 456.331 306.595Z" fill="#7C7B76"/>
<path d="M492.155 306.595H477.554C476.842 306.595 476.264 307.181 476.264 307.904C476.264 308.627 476.842 309.214 477.554 309.214H492.155C492.867 309.214 493.444 308.627 493.444 307.904C493.444 307.181 492.867 306.595 492.155 306.595Z" fill="#7C7B76"/>
<path d="M443.936 312.724H441.587C440.875 312.724 440.298 313.31 440.298 314.033C440.298 314.756 440.875 315.343 441.587 315.343H443.936C444.649 315.343 445.226 314.756 445.226 314.033C445.226 313.31 444.649 312.724 443.936 312.724Z" fill="#7C7B76"/>
<path d="M470.804 312.724H468.455C467.742 312.724 467.165 313.31 467.165 314.033C467.165 314.756 467.742 315.343 468.455 315.343H470.804C471.516 315.343 472.093 314.756 472.093 314.033C472.093 313.31 471.516 312.724 470.804 312.724Z" fill="#7C7B76"/>
<path d="M478.416 312.724H476.067C475.355 312.724 474.778 313.31 474.778 314.033C474.778 314.756 475.355 315.343 476.067 315.343H478.416C479.129 315.343 479.706 314.756 479.706 314.033C479.706 313.31 479.129 312.724 478.416 312.724Z" fill="#7C7B76"/>
<path d="M463.496 312.505H448.895C448.183 312.505 447.605 313.092 447.605 313.815C447.605 314.538 448.183 315.124 448.895 315.124H463.496C464.208 315.124 464.785 314.538 464.785 313.815C464.785 313.092 464.208 312.505 463.496 312.505Z" fill="#7C7B76"/>
<path d="M499.319 312.505H484.719C484.006 312.505 483.429 313.092 483.429 313.815C483.429 314.538 484.006 315.124 484.719 315.124H499.319C500.032 315.124 500.609 314.538 500.609 313.815C500.609 313.092 500.032 312.505 499.319 312.505Z" fill="#7C7B76"/>
<path d="M451.101 318.634H448.752C448.04 318.634 447.462 319.221 447.462 319.944C447.462 320.667 448.04 321.253 448.752 321.253H451.101C451.813 321.253 452.391 320.667 452.391 319.944C452.391 319.221 451.813 318.634 451.101 318.634Z" fill="#7C7B76"/>
<path d="M477.969 318.634H475.619C474.907 318.634 474.33 319.221 474.33 319.944C474.33 320.667 474.907 321.253 475.619 321.253H477.969C478.681 321.253 479.258 320.667 479.258 319.944C479.258 319.221 478.681 318.634 477.969 318.634Z" fill="#7C7B76"/>
<path d="M485.581 318.634H483.232C482.52 318.634 481.942 319.221 481.942 319.944C481.942 320.667 482.52 321.253 483.232 321.253H485.581C486.293 321.253 486.871 320.667 486.871 319.944C486.871 319.221 486.293 318.634 485.581 318.634Z" fill="#7C7B76"/>
<path d="M470.661 318.416H456.06C455.348 318.416 454.77 319.002 454.77 319.725C454.77 320.449 455.348 321.035 456.06 321.035H470.661C471.373 321.035 471.95 320.449 471.95 319.725C471.95 319.002 471.373 318.416 470.661 318.416Z" fill="#7C7B76"/>
<path d="M456.475 342.137H454.125C453.413 342.137 452.836 342.724 452.836 343.447C452.836 344.17 453.413 344.756 454.125 344.756H456.475C457.187 344.756 457.764 344.17 457.764 343.447C457.764 342.724 457.187 342.137 456.475 342.137Z" fill="#6A6A6A"/>
<path d="M464.087 342.137H461.738C461.026 342.137 460.448 342.724 460.448 343.447C460.448 344.17 461.026 344.756 461.738 344.756H464.087C464.799 344.756 465.377 344.17 465.377 343.447C465.377 342.724 464.799 342.137 464.087 342.137Z" fill="#6A6A6A"/>
<path d="M484.99 342.356H470.389C469.677 342.356 469.1 342.942 469.1 343.665C469.1 344.388 469.677 344.975 470.389 344.975H484.99C485.702 344.975 486.28 344.388 486.28 343.665C486.28 342.942 485.702 342.356 484.99 342.356Z" fill="#6A6A6A"/>
<path d="M429.607 342.137H427.258C426.545 342.137 425.968 342.724 425.968 343.447C425.968 344.17 426.545 344.756 427.258 344.756H429.607C430.319 344.756 430.896 344.17 430.896 343.447C430.896 342.724 430.319 342.137 429.607 342.137Z" fill="#6A6A6A"/>
<path d="M449.166 342.356H434.566C433.854 342.356 433.276 342.942 433.276 343.665C433.276 344.388 433.854 344.975 434.566 344.975H449.166C449.879 344.975 450.456 344.388 450.456 343.665C450.456 342.942 449.879 342.356 449.166 342.356Z" fill="#6A6A6A"/>
<path d="M436.772 336.227H434.422C433.71 336.227 433.133 336.813 433.133 337.536C433.133 338.259 433.71 338.846 434.422 338.846H436.772C437.484 338.846 438.061 338.259 438.061 337.536C438.061 336.813 437.484 336.227 436.772 336.227Z" fill="#6A6A6A"/>
<path d="M463.639 336.227H461.29C460.578 336.227 460 336.813 460 337.536C460 338.259 460.578 338.846 461.29 338.846H463.639C464.351 338.846 464.929 338.259 464.929 337.536C464.929 336.813 464.351 336.227 463.639 336.227Z" fill="#6A6A6A"/>
<path d="M471.252 336.227H468.902C468.19 336.227 467.613 336.813 467.613 337.536C467.613 338.259 468.19 338.846 468.902 338.846H471.252C471.964 338.846 472.541 338.259 472.541 337.536C472.541 336.813 471.964 336.227 471.252 336.227Z" fill="#6A6A6A"/>
<path d="M456.331 336.445H441.731C441.018 336.445 440.441 337.031 440.441 337.755C440.441 338.478 441.018 339.064 441.731 339.064H456.331C457.043 339.064 457.621 338.478 457.621 337.755C457.621 337.031 457.043 336.445 456.331 336.445Z" fill="#6A6A6A"/>
<path d="M443.936 330.316H441.587C440.875 330.316 440.298 330.902 440.298 331.626C440.298 332.349 440.875 332.935 441.587 332.935H443.936C444.649 332.935 445.226 332.349 445.226 331.626C445.226 330.902 444.649 330.316 443.936 330.316Z" fill="#6A6A6A"/>
<path d="M470.804 330.316H468.455C467.742 330.316 467.165 330.902 467.165 331.626C467.165 332.349 467.742 332.935 468.455 332.935H470.804C471.516 332.935 472.093 332.349 472.093 331.626C472.093 330.902 471.516 330.316 470.804 330.316Z" fill="#6A6A6A"/>
<path d="M478.416 330.316H476.067C475.355 330.316 474.778 330.902 474.778 331.626C474.778 332.349 475.355 332.935 476.067 332.935H478.416C479.129 332.935 479.706 332.349 479.706 331.626C479.706 330.902 479.129 330.316 478.416 330.316Z" fill="#6A6A6A"/>
<path d="M463.496 330.535H448.895C448.183 330.535 447.605 331.121 447.605 331.844C447.605 332.567 448.183 333.153 448.895 333.153H463.496C464.208 333.153 464.785 332.567 464.785 331.844C464.785 331.121 464.208 330.535 463.496 330.535Z" fill="#6A6A6A"/>
<path d="M451.101 324.406H448.752C448.04 324.406 447.462 324.992 447.462 325.715C447.462 326.438 448.04 327.024 448.752 327.024H451.101C451.813 327.024 452.391 326.438 452.391 325.715C452.391 324.992 451.813 324.406 451.101 324.406Z" fill="#6A6A6A"/>
<path d="M477.969 324.406H475.619C474.907 324.406 474.33 324.992 474.33 325.715C474.33 326.438 474.907 327.024 475.619 327.024H477.969C478.681 327.024 479.258 326.438 479.258 325.715C479.258 324.992 478.681 324.406 477.969 324.406Z" fill="#6A6A6A"/>
<path d="M485.581 324.406H483.232C482.52 324.406 481.942 324.992 481.942 325.715C481.942 326.438 482.52 327.024 483.232 327.024H485.581C486.293 327.024 486.871 326.438 486.871 325.715C486.871 324.992 486.293 324.406 485.581 324.406Z" fill="#6A6A6A"/>
<path d="M470.661 324.624H456.06C455.348 324.624 454.77 325.21 454.77 325.933C454.77 326.657 455.348 327.243 456.06 327.243H470.661C471.373 327.243 471.95 326.657 471.95 325.933C471.95 325.21 471.373 324.624 470.661 324.624Z" fill="#6A6A6A"/>
<path d="M417.117 411.408L406.089 393.708L440.705 365.69L454.993 349.618C456.849 347.53 459.212 345.973 461.847 345.103C464.481 344.233 467.295 344.08 470.006 344.66C472.716 345.24 475.23 346.532 477.295 348.407C479.36 350.282 480.904 352.674 481.773 355.345C483.061 359.303 482.784 363.614 481.001 367.369C479.218 371.123 476.068 374.028 472.215 375.469L449.622 383.92L417.117 411.408Z" fill="#FFB6B6"/>
<path d="M158.357 283.073V369.099H217.713V283.073C217.714 282.454 217.52 281.852 217.158 281.353C216.797 280.855 216.288 280.488 215.706 280.305C215.431 280.213 215.144 280.168 214.855 280.171H161.224C160.848 280.17 160.475 280.245 160.128 280.39C159.78 280.536 159.464 280.749 159.198 281.019C158.932 281.288 158.72 281.608 158.576 281.961C158.432 282.313 158.357 282.691 158.357 283.073ZM181.521 312.632C181.537 310.936 182.211 309.315 183.398 308.121C184.584 306.927 186.187 306.258 187.857 306.258C189.528 306.258 191.131 306.927 192.317 308.121C193.504 309.315 194.178 310.936 194.194 312.632V322.613C194.185 324.314 193.514 325.942 192.326 327.141C191.139 328.341 189.532 329.014 187.857 329.014C186.182 329.014 184.576 328.341 183.388 327.141C182.201 325.942 181.53 324.314 181.521 322.613V312.632Z" fill="#2F2E41"/>
<path d="M158.175 366.348V374.643C158.177 375.073 158.345 375.485 158.643 375.789C158.942 376.094 159.346 376.267 159.77 376.27H216.3C216.724 376.268 217.13 376.096 217.428 375.791C217.727 375.486 217.895 375.073 217.895 374.643V366.348H158.175Z" fill="#3F3D56"/>
<path d="M64.9819 153.464V310.535C64.9835 312.536 65.7673 314.456 67.1613 315.871C68.5553 317.286 70.4455 318.082 72.4169 318.084H301.663C303.634 318.082 305.524 317.286 306.918 315.871C308.312 314.456 309.096 312.536 309.098 310.535V153.464C309.093 151.465 308.308 149.548 306.914 148.135C305.521 146.721 303.632 145.926 301.663 145.924H72.4169C70.4472 145.926 68.5588 146.721 67.1653 148.135C65.7717 149.548 64.9866 151.465 64.9819 153.464Z" fill="#3F3D56"/>
<path d="M70.3599 155.419V308.597C70.3617 309.667 70.7809 310.692 71.5257 311.448C72.2705 312.204 73.2801 312.63 74.3335 312.632H299.754C300.807 312.63 301.817 312.204 302.562 311.448C303.307 310.692 303.726 309.667 303.728 308.597V155.419C303.728 154.348 303.309 153.321 302.564 152.563C301.819 151.805 300.809 151.378 299.754 151.376H74.3335C73.2789 151.378 72.2683 151.805 71.5233 152.563C70.7784 153.321 70.36 154.348 70.3599 155.419Z" fill="#F7F7F7" fill-opacity="0.87"/>
<path d="M112.194 375.708C112.423 376 112.715 376.236 113.047 376.397C113.379 376.558 113.743 376.641 114.111 376.639H248.221C248.588 376.639 248.95 376.555 249.281 376.395C249.612 376.235 249.904 376.001 250.135 375.712C250.366 375.423 250.531 375.085 250.617 374.723C250.703 374.361 250.709 373.984 250.634 373.62L248.552 363.579C248.465 363.17 248.28 362.789 248.011 362.471C247.743 362.153 247.401 361.909 247.015 361.759C246.736 361.648 246.439 361.591 246.14 361.592H116.184C115.884 361.591 115.587 361.648 115.308 361.759C114.923 361.909 114.581 362.153 114.312 362.471C114.044 362.789 113.858 363.17 113.772 363.579L111.69 373.62C111.616 373.984 111.623 374.36 111.71 374.722C111.797 375.083 111.962 375.42 112.194 375.708Z" fill="#2F2E41"/>
<path d="M292.439 172.477H81.5132C81.294 172.472 81.0854 172.38 80.932 172.221C80.7787 172.062 80.6929 171.848 80.6929 171.625C80.6929 171.403 80.7787 171.189 80.932 171.03C81.0854 170.87 81.294 170.778 81.5132 170.774H292.439C292.658 170.778 292.866 170.87 293.02 171.03C293.173 171.189 293.259 171.403 293.259 171.625C293.259 171.848 293.173 172.062 293.02 172.221C292.866 172.38 292.658 172.472 292.439 172.477Z" fill="#7A7A7A"/>
<path d="M95.8713 166.425C98.5861 166.425 100.787 164.141 100.787 161.323C100.787 158.505 98.5861 156.22 95.8713 156.22C93.1564 156.22 90.9556 158.505 90.9556 161.323C90.9556 164.141 93.1564 166.425 95.8713 166.425Z" fill="#7A7A7A"/>
<path d="M112.853 166.425C115.568 166.425 117.768 164.141 117.768 161.323C117.768 158.505 115.568 156.22 112.853 156.22C110.138 156.22 107.937 158.505 107.937 161.323C107.937 164.141 110.138 166.425 112.853 166.425Z" fill="#7A7A7A"/>
<path d="M129.834 166.425C132.549 166.425 134.75 164.141 134.75 161.323C134.75 158.505 132.549 156.22 129.834 156.22C127.119 156.22 124.918 158.505 124.918 161.323C124.918 164.141 127.119 166.425 129.834 166.425Z" fill="#7A7A7A"/>
<path d="M282.213 157.482H270.152C269.913 157.488 269.686 157.588 269.52 157.761C269.353 157.934 269.26 158.167 269.26 158.409C269.26 158.651 269.353 158.884 269.52 159.057C269.686 159.23 269.913 159.33 270.152 159.336H282.213C282.453 159.332 282.682 159.233 282.85 159.06C283.018 158.886 283.113 158.653 283.113 158.409C283.113 158.165 283.018 157.932 282.85 157.758C282.682 157.585 282.453 157.486 282.213 157.482Z" fill="#7A7A7A"/>
<path d="M282.213 160.963H270.151C269.913 160.969 269.686 161.069 269.519 161.242C269.352 161.415 269.259 161.648 269.259 161.89C269.259 162.132 269.352 162.365 269.519 162.538C269.686 162.712 269.913 162.812 270.151 162.817H282.213C282.453 162.814 282.682 162.715 282.851 162.542C283.02 162.368 283.115 162.134 283.115 161.89C283.115 161.646 283.02 161.412 282.851 161.239C282.682 161.065 282.453 160.966 282.213 160.963Z" fill="#7A7A7A"/>
<path d="M282.213 164.444H270.152C269.913 164.45 269.686 164.55 269.52 164.723C269.353 164.896 269.26 165.129 269.26 165.371C269.26 165.613 269.353 165.846 269.52 166.019C269.686 166.192 269.913 166.292 270.152 166.298H282.213C282.453 166.294 282.682 166.195 282.85 166.022C283.018 165.848 283.113 165.615 283.113 165.371C283.113 165.127 283.018 164.894 282.85 164.72C282.682 164.547 282.453 164.447 282.213 164.444Z" fill="#7A7A7A"/>
<path d="M572.986 369.988C573.35 371.064 574.041 371.995 574.959 372.648C575.876 373.301 576.974 373.641 578.094 373.621L599.98 373.049C601.108 373.027 602.199 372.634 603.09 371.93C603.98 371.226 604.623 370.248 604.92 369.143L608.017 335.518C609.116 336.024 610.312 336.273 611.518 336.249C612.566 336.222 613.599 335.986 614.557 335.554C615.514 335.123 616.379 334.503 617.102 333.732C617.824 332.961 618.39 332.053 618.766 331.06C619.143 330.067 619.323 329.008 619.297 327.944C619.271 326.88 619.038 325.832 618.613 324.86C618.188 323.887 617.578 323.009 616.818 322.275C616.059 321.542 615.165 320.968 614.186 320.585C613.208 320.203 612.166 320.02 611.118 320.046C610.636 320.045 610.155 320.096 609.684 320.198C609.171 319.635 608.548 319.187 607.854 318.883C607.161 318.579 606.412 318.426 605.657 318.434L571.993 319.317C571.713 319.327 571.436 319.362 571.162 319.421C570.424 319.561 569.724 319.86 569.109 320.297C568.494 320.735 567.978 321.301 567.597 321.958C567.215 322.615 566.977 323.347 566.897 324.105C566.818 324.863 566.9 325.63 567.136 326.353L572.986 369.988ZM608.652 333.235L610.856 325.223C611.107 324.297 611.113 323.321 610.873 322.392C610.98 322.392 611.074 322.34 611.181 322.34C612.692 322.308 614.154 322.886 615.246 323.947C616.338 325.008 616.971 326.465 617.007 328C617.042 329.534 616.477 331.02 615.435 332.131C614.393 333.243 612.959 333.89 611.449 333.93C610.472 333.961 609.505 333.721 608.652 333.235Z" fill="#B3B3B3"/>
<path d="M571.162 319.421C571.88 323.585 579.943 326.512 589.639 326.003C598.555 325.586 605.845 322.407 607.181 318.64C606.686 318.492 606.172 318.422 605.657 318.434L571.993 319.316C571.713 319.327 571.436 319.362 571.162 319.421Z" fill="#6D6D6D"/>
<path d="M591.416 351.511C591.46 351.5 591.502 351.481 591.54 351.456L596.293 348.297C596.351 348.259 596.398 348.207 596.431 348.146C596.463 348.085 596.48 348.016 596.48 347.946C596.48 347.877 596.463 347.808 596.431 347.747C596.398 347.686 596.351 347.634 596.293 347.596L591.354 344.31C591.308 344.28 591.257 344.259 591.204 344.248C591.151 344.238 591.096 344.238 591.043 344.249C590.989 344.26 590.939 344.282 590.894 344.313C590.849 344.344 590.81 344.384 590.78 344.43C590.751 344.476 590.73 344.528 590.72 344.582C590.71 344.636 590.711 344.692 590.722 344.746C590.733 344.8 590.755 344.851 590.785 344.897C590.816 344.942 590.855 344.981 590.901 345.011L595.313 347.946L591.088 350.754C591.007 350.808 590.946 350.89 590.919 350.985C590.891 351.08 590.897 351.183 590.936 351.273C590.975 351.364 591.045 351.438 591.133 351.482C591.221 351.525 591.321 351.536 591.416 351.511H591.416Z" fill="white"/>
<path d="M583.909 351.863C583.989 351.842 584.061 351.798 584.116 351.736C584.171 351.674 584.206 351.596 584.217 351.513C584.228 351.43 584.215 351.346 584.179 351.271C584.142 351.196 584.085 351.134 584.013 351.092L579.633 348.542L583.867 345.349C583.91 345.316 583.947 345.275 583.975 345.228C584.003 345.18 584.021 345.128 584.029 345.074C584.037 345.019 584.034 344.964 584.021 344.91C584.008 344.857 583.984 344.807 583.952 344.762C583.92 344.718 583.879 344.681 583.833 344.653C583.786 344.625 583.734 344.606 583.681 344.598C583.627 344.59 583.573 344.593 583.52 344.606C583.467 344.619 583.418 344.643 583.375 344.676L578.634 348.251C578.579 348.293 578.535 348.348 578.506 348.411C578.477 348.474 578.463 348.543 578.468 348.613C578.472 348.682 578.493 348.75 578.529 348.809C578.565 348.868 578.615 348.917 578.674 348.952L583.602 351.82C583.695 351.874 583.805 351.89 583.909 351.863Z" fill="white"/>
<path d="M590.943 354.279C590.983 354.269 591.021 354.253 591.056 354.231C591.103 354.202 591.143 354.164 591.175 354.12C591.207 354.076 591.23 354.025 591.243 353.972C591.256 353.918 591.258 353.863 591.25 353.808C591.242 353.754 591.223 353.701 591.195 353.654L584.457 342.408C584.4 342.313 584.308 342.245 584.202 342.219C584.096 342.193 583.983 342.21 583.89 342.268C583.796 342.326 583.729 342.419 583.703 342.527C583.677 342.635 583.695 342.749 583.752 342.844L590.489 354.091C590.535 354.167 590.604 354.227 590.686 354.261C590.767 354.295 590.858 354.301 590.943 354.279Z" fill="white"/>
<path d="M212.178 218.777H175.671C174.182 218.777 172.975 220.003 172.975 221.515V225.137C172.975 226.649 174.182 227.875 175.671 227.875H212.178C213.667 227.875 214.874 226.649 214.874 225.137V221.515C214.874 220.003 213.667 218.777 212.178 218.777Z" fill="#7A7A7A"/>
<path d="M233.457 236.972H154.392C152.903 236.972 151.695 238.198 151.695 239.71V243.331C151.695 244.843 152.903 246.069 154.392 246.069H233.457C234.946 246.069 236.154 244.843 236.154 243.331V239.71C236.154 238.198 234.946 236.972 233.457 236.972Z" fill="#7A7A7A"/>
<path d="M233.457 255.166H154.392C152.903 255.166 151.695 256.392 151.695 257.904V261.525C151.695 263.037 152.903 264.263 154.392 264.263H233.457C234.946 264.263 236.154 263.037 236.154 261.525V257.904C236.154 256.392 234.946 255.166 233.457 255.166Z" fill="#7A7A7A"/>
<path d="M240.159 316.092L240.338 316.666L240.348 316.685L245.738 333.325L251.939 352.5L263.606 388.535L263.719 394.133V394.152L264.586 439.182L262.183 445.287L264.888 455.295C264.888 455.295 263.644 440.166 256.972 448.854C253.193 453.792 248.773 458.844 245.145 463.58C250.432 465.753 255.803 467.717 261.26 469.475C262.438 469.857 263.625 470.221 264.813 470.585C265.067 470.661 265.321 470.738 265.576 470.814C283.663 476.245 302.363 479.297 321.215 479.895C322.195 479.924 323.157 479.943 324.089 479.962C324.419 479.971 324.74 479.981 325.06 479.981C326.116 479.991 327.162 480 328.217 480C330.347 480 332.467 479.968 334.578 479.904C350.203 479.457 365.736 477.324 380.916 473.541C380.812 467.178 380.53 459.743 380.125 451.802C379.936 447.907 375.705 443.687 375.45 439.611C375.271 436.549 379.069 433.669 378.871 430.559C377.589 411.413 375.987 418.763 374.8 405.204C374.677 403.874 374.564 402.601 374.461 401.386C373.697 392.679 373.17 387.234 373.17 387.234L378.24 354.787L386.203 303.844L385.59 302.82L384.903 302.476L342.9 281.368L340.619 275.435C339.955 273.726 338.802 272.258 337.309 271.219C335.816 270.181 334.051 269.62 332.241 269.608L304.572 269.493C303.136 269.486 301.72 269.828 300.44 270.488C299.16 271.149 298.053 272.11 297.212 273.292L289.72 283.827L240.159 316.092Z" fill="#3F3D56"/>
<path d="M269.987 380.517L263.719 394.133L259.441 403.434L252.081 442.56L248.396 446.53L245.239 432.473L212.197 439.922C211.113 433.808 211.906 440.129 211.237 433.422C211.426 433.23 211.624 433.039 211.822 432.847C212.349 432.35 212.792 431.881 212.783 431.431C212.406 408.294 213.537 368.92 222.98 345.065C224.459 341.171 226.409 337.478 228.785 334.071C228.973 333.813 229.152 333.554 229.331 333.296C233.685 327.105 236.437 321.01 240.339 316.676V316.666C240.363 316.646 240.385 316.624 240.405 316.599C240.419 316.592 240.432 316.582 240.442 316.57L267.244 302.141L268.394 334.942L269.214 358.519L269.987 380.517Z" fill="#3F3D56"/>
<path d="M366.629 384.384L374.457 401.391L377.189 407.313L384.547 446.435L388.22 450.397L391.384 436.343L392.871 436.033L419.686 430.394L427.501 455.597C429.263 452.617 429.957 449.11 429.466 445.671C428.975 442.231 427.329 439.069 424.807 436.719C424.273 436.229 423.828 435.752 423.841 435.3C424.286 408.087 422.647 358.397 407.842 337.946C403.139 331.456 400.318 324.991 396.214 320.475C396.201 320.462 396.201 320.449 396.188 320.449L386.199 303.843L385.589 302.824L384.903 302.475L366.629 384.384Z" fill="#3F3D56"/>
<path d="M319.206 261.498C339.536 261.498 356.016 244.765 356.016 224.123C356.016 203.482 339.536 186.749 319.206 186.749C298.876 186.749 282.396 203.482 282.396 224.123C282.396 244.765 298.876 261.498 319.206 261.498Z" fill="#FFB6B6"/>
<path d="M368.959 198.017C368.674 197.708 368.33 197.46 367.948 197.288C367.566 197.117 367.154 197.025 366.737 197.019L367.29 195.459C367.471 194.967 367.52 194.436 367.432 193.919C367.344 193.402 367.122 192.919 366.789 192.518C366.456 192.116 366.024 191.812 365.537 191.636C365.051 191.461 364.527 191.419 364.019 191.517L362.003 191.911L362.193 190.544C362.266 190.034 362.207 189.515 362.022 189.036C361.837 188.557 361.533 188.135 361.139 187.811C360.744 187.488 360.274 187.275 359.774 187.192C359.274 187.109 358.761 187.16 358.286 187.339C357.854 187.512 357.389 187.584 356.926 187.551C356.463 187.518 356.013 187.379 355.609 187.147C355.204 186.921 354.852 186.608 354.578 186.23C354.304 185.852 354.115 185.417 354.023 184.957L353.321 181.518L353.247 181.334C349.826 175.546 343.251 171.335 335.204 169.792C328.042 168.408 320.698 169.113 313.618 169.775C310.809 170.044 307.637 170.346 304.993 171.99C302.746 173.399 300.846 176.217 301.235 179.061C294.254 176.888 286.769 181.225 283.06 186.694C278.665 193.202 277.947 201.355 277.831 207.73C277.517 222.812 280.582 235.15 286.918 244.41C287.381 245.081 287.496 246.482 288.413 246.952L288.223 246.641C289.248 247.161 290.289 248 289.9 248.898C288.785 251.481 296.195 257.193 301.416 259.081C310.941 262.528 323.606 262.234 332.511 260.993L332.825 258.854C336.039 258.41 338.302 257.562 338.938 256.237C340.062 255.264 341.02 254.392 341.855 253.586L341.863 253.578C341.879 253.561 341.912 253.536 341.929 253.519C345.952 249.602 346.885 247.371 347.307 243.974C347.712 240.644 346.993 237.264 346.258 234.219C361.739 236.652 340.161 217.477 354.585 213.77C354.75 213.718 354.919 213.676 355.089 213.644C355.51 213.543 355.931 213.442 356.336 213.325C358.287 212.787 360.156 211.977 361.888 210.918C365.919 208.426 367.249 205.122 369.331 201.397C369.631 200.867 369.757 200.253 369.69 199.645C369.624 199.038 369.367 198.467 368.959 198.017Z" fill="#2F2E41"/>
<path d="M449.398 387.045C449.389 388.513 449.373 390.568 449.307 393.11C449.298 393.462 449.29 393.823 449.282 394.192C449.174 398.864 449.067 402.781 448.894 407.134C448.885 407.436 448.877 407.73 448.861 408.032C448.629 414.104 448.266 421.175 447.638 432.373C446.473 453.057 444.441 435.217 442.4 442.472C442.301 442.833 442.194 443.261 442.095 443.764C441.786 445.59 441.264 447.372 440.542 449.073C439.459 449.727 438.344 450.357 437.245 450.986C434.114 452.756 430.934 454.458 427.729 456.077C425.928 456.983 424.119 457.872 422.301 458.728C422.012 458.862 421.731 458.996 421.45 459.122C412.143 463.493 402.552 467.209 392.743 470.244C390.826 470.831 388.918 471.402 386.985 471.93C384.969 472.5 382.953 473.037 380.913 473.541C365.733 477.324 350.201 479.458 334.576 479.907C332.47 479.974 330.347 479.999 328.215 479.999C327.158 479.999 326.117 479.991 325.06 479.982C324.738 479.982 324.415 479.974 324.093 479.966C323.16 479.94 322.193 479.924 321.218 479.899C302.366 479.301 283.666 476.249 265.58 470.815L264.811 470.588C263.622 470.219 262.441 469.858 261.259 469.472C255.807 467.719 250.434 465.757 245.142 463.584C241.102 461.932 237.109 460.159 233.163 458.266C233.127 458.256 233.093 458.239 233.064 458.216C232.238 457.83 231.404 457.428 230.577 457.017C230.47 456.958 230.354 456.899 230.239 456.84C227.157 455.314 224.109 453.715 221.094 452.043C218.558 446.129 214.989 444.997 212.775 439.796C212.13 438.251 211.665 436.636 211.387 434.982C211.387 434.965 211.379 434.948 211.379 434.923C211.61 438.043 210.396 429.387 211.37 434.889C211.362 434.789 211.354 434.68 211.346 434.554C211.321 434.252 211.288 433.883 211.238 433.422C208.405 405.331 208.586 373.205 207.356 346.733C207.273 345.022 207.188 343.384 207.099 341.818C207.075 341.298 207.042 340.786 207.009 340.283C207.066 340.132 207.132 339.973 207.207 339.822C207.223 339.778 207.242 339.736 207.265 339.696C207.289 339.644 207.317 339.593 207.347 339.545C207.364 339.52 207.389 339.486 207.405 339.461C207.417 339.432 207.431 339.404 207.446 339.377C207.521 339.26 207.603 339.134 207.694 339.017C207.736 338.966 207.769 338.924 207.81 338.882C207.838 338.839 207.872 338.8 207.909 338.765C207.934 338.725 207.965 338.688 208 338.656C208.033 338.622 208.066 338.58 208.107 338.538C208.125 338.512 208.147 338.489 208.173 338.471C208.239 338.395 208.311 338.325 208.388 338.262C208.683 337.986 208.998 337.734 209.33 337.507C209.446 337.431 209.569 337.356 209.685 337.272C210.518 336.766 211.394 336.339 212.304 335.997C212.618 335.88 212.932 335.771 213.27 335.653C213.394 335.62 213.51 335.578 213.634 335.536C213.816 335.477 213.997 335.418 214.187 335.376C215.129 335.091 216.145 334.848 217.244 334.621C217.376 334.596 217.517 334.571 217.657 334.537C217.855 334.496 218.062 334.462 218.268 334.428C218.549 334.378 218.838 334.328 219.128 334.277C221.581 333.883 224.365 333.59 227.438 333.397C227.727 333.38 228.017 333.363 228.306 333.346C228.644 333.33 228.983 333.313 229.33 333.296C229.619 333.279 229.917 333.271 230.214 333.263C230.503 333.246 230.801 333.237 231.106 333.229C231.941 333.204 232.8 333.179 233.675 333.162C236.17 333.112 238.797 333.128 241.556 333.187C242.837 333.221 244.142 333.254 245.481 333.313C245.571 333.313 245.654 333.321 245.737 333.321C246.901 333.363 248.074 333.414 249.281 333.481C250.123 333.523 250.974 333.565 251.825 333.615C252.626 333.665 253.436 333.716 254.254 333.774C254.89 333.808 255.526 333.858 256.17 333.9C256.716 333.942 257.261 333.984 257.806 334.017L258.549 334.068C258.954 334.101 259.359 334.126 259.772 334.168C260.681 334.244 261.59 334.319 262.515 334.395C263.432 334.479 264.365 334.563 265.299 334.647C266.232 334.73 267.174 334.823 268.116 334.915C268.215 334.923 268.306 334.932 268.397 334.94C269.256 335.032 270.115 335.116 270.982 335.209C271.181 335.225 271.387 335.242 271.586 335.267C272.413 335.352 273.256 335.45 274.09 335.54C274.346 335.568 274.601 335.596 274.858 335.624C275.512 335.696 276.156 335.759 276.815 335.838C277.682 335.938 278.566 336.031 279.425 336.148C280.094 336.223 280.764 336.299 281.433 336.383C282.482 336.509 283.548 336.643 284.613 336.785C285.018 336.836 285.423 336.886 285.828 336.945C288.868 337.331 291.941 337.758 295.064 338.203C299.797 338.882 304.605 339.621 309.446 340.417C314.295 341.214 319.172 342.056 324.077 342.942C325.316 343.169 326.555 343.395 327.802 343.63C328.364 343.739 328.926 343.848 329.488 343.957C330.446 344.133 331.404 344.318 332.362 344.502C333.321 344.687 334.279 344.871 335.237 345.064C336.377 345.291 337.526 345.517 338.666 345.744C346.175 347.253 353.643 348.864 360.929 350.55C362.127 350.827 363.325 351.112 364.515 351.389C366.894 351.951 369.251 352.521 371.586 353.1C372.23 353.251 372.867 353.41 373.503 353.569C375.089 353.972 376.675 354.375 378.236 354.786L378.509 354.861C379.657 355.146 380.781 355.44 381.904 355.742C384.556 356.446 387.164 357.159 389.727 357.881C391.429 358.359 393.112 358.843 394.775 359.332C397.262 360.062 399.699 360.8 402.07 361.546C402.656 361.731 403.243 361.915 403.821 362.091C405.556 362.637 407.266 363.19 408.926 363.744C410.248 364.18 411.537 364.625 412.809 365.069C414.081 365.514 415.329 365.958 416.551 366.403C417.336 366.688 418.113 366.99 418.889 367.275C420.004 367.695 421.103 368.114 422.177 368.533C422.508 368.659 422.83 368.793 423.152 368.919C423.358 369.011 423.557 369.087 423.755 369.171C424.143 369.33 424.54 369.481 424.92 369.64C425.308 369.791 425.688 369.951 426.068 370.119C426.44 370.27 426.82 370.429 427.183 370.588C427.555 370.739 427.919 370.899 428.282 371.066C428.588 371.192 428.885 371.326 429.174 371.461C429.761 371.721 430.347 371.981 430.917 372.249C431.198 372.383 431.479 372.509 431.76 372.643L432.404 372.945C432.495 372.996 432.586 373.038 432.677 373.08C432.883 373.18 433.098 373.289 433.305 373.39C433.784 373.616 434.255 373.86 434.717 374.086C435.337 374.405 435.94 374.724 436.518 375.034C437.105 375.353 437.675 375.671 438.22 375.982C438.311 376.032 438.394 376.082 438.485 376.133C438.608 376.2 438.732 376.275 438.856 376.342C439.278 376.586 439.682 376.837 440.087 377.08C440.88 377.575 441.632 378.062 442.334 378.548C442.491 378.657 442.64 378.766 442.797 378.867C443.317 379.244 443.813 379.614 444.276 379.991C444.276 379.999 444.276 379.999 444.284 379.999C444.441 380.117 444.589 380.243 444.738 380.36C444.862 380.478 444.994 380.578 445.118 380.696C445.548 381.073 445.944 381.434 446.308 381.803C446.43 381.917 446.545 382.037 446.655 382.164C446.703 382.204 446.747 382.249 446.787 382.298C446.952 382.465 447.101 382.633 447.241 382.801C447.263 382.824 447.282 382.849 447.299 382.876C447.497 383.111 447.679 383.346 447.853 383.581C447.935 383.698 448.026 383.816 448.1 383.933C448.2 384.076 448.299 384.227 448.381 384.37C448.456 384.487 448.522 384.613 448.588 384.73C448.763 385.033 448.912 385.35 449.034 385.678C449.127 385.901 449.201 386.131 449.257 386.366C449.32 386.589 449.367 386.816 449.398 387.045Z" fill="#6A6A6A"/>
<path opacity="0.2" d="M449.398 387.045C449.389 388.513 449.373 390.568 449.307 393.11C449.298 393.462 449.282 393.823 449.274 394.192C449.191 397.757 449.067 402.16 448.894 407.134C448.885 407.436 448.877 407.73 448.861 408.032C448.629 414.104 448.266 421.175 447.638 432.373C446.473 453.057 444.441 435.217 442.4 442.472C436.733 438.932 430.521 435.225 423.879 431.417C422.681 430.729 421.472 430.039 420.252 429.345C406.968 421.821 392.132 413.937 376.642 406.128C376.031 405.817 375.411 405.507 374.8 405.205C339.318 387.398 300.59 370.077 269.215 358.518C263.159 356.287 257.376 354.274 251.941 352.504C240.491 348.788 230.594 346.188 222.977 345.064C215.047 343.89 209.569 344.309 207.355 346.733C207.273 345.022 207.187 343.384 207.099 341.818C207.066 341.298 207.033 340.786 207 340.283C207.051 340.145 207.117 340.013 207.182 339.88C207.191 339.861 207.197 339.841 207.207 339.822C207.223 339.778 207.242 339.736 207.265 339.696C207.289 339.644 207.317 339.593 207.347 339.545C207.374 339.486 207.407 339.429 207.446 339.377C207.521 339.26 207.603 339.134 207.694 339.017C207.761 338.929 207.833 338.845 207.909 338.765C207.934 338.725 207.965 338.688 208 338.656C208.033 338.622 208.066 338.58 208.107 338.538C208.125 338.512 208.147 338.489 208.173 338.471C208.239 338.395 208.311 338.325 208.388 338.262C208.683 337.986 208.998 337.734 209.33 337.507C209.445 337.431 209.569 337.356 209.685 337.272C210.518 336.766 211.394 336.339 212.304 335.997C212.618 335.88 212.932 335.77 213.27 335.653C213.394 335.619 213.51 335.578 213.634 335.536C213.816 335.477 213.997 335.418 214.187 335.376C215.129 335.091 216.145 334.848 217.244 334.621C217.574 334.554 217.921 334.487 218.268 334.428C218.549 334.378 218.838 334.328 219.128 334.277C221.581 333.883 224.365 333.59 227.438 333.397C227.727 333.38 228.016 333.363 228.306 333.346C228.644 333.33 228.983 333.313 229.33 333.296C229.619 333.279 229.917 333.271 230.214 333.263C230.503 333.246 230.8 333.237 231.106 333.229C231.941 333.204 232.8 333.179 233.675 333.162C236.17 333.12 238.797 333.137 241.556 333.195C242.837 333.221 244.142 333.263 245.48 333.321C245.563 333.321 245.654 333.33 245.737 333.33C246.901 333.363 248.083 333.422 249.281 333.481C250.123 333.523 250.974 333.564 251.825 333.615C252.626 333.665 253.436 333.715 254.254 333.774C254.89 333.808 255.526 333.858 256.17 333.9C256.715 333.942 257.261 333.984 257.806 334.017C258.459 334.068 259.111 334.118 259.772 334.168C260.681 334.244 261.59 334.319 262.515 334.395C263.432 334.479 264.365 334.563 265.299 334.646C266.232 334.73 267.174 334.823 268.116 334.915C268.215 334.923 268.306 334.932 268.397 334.94C269.256 335.032 270.115 335.116 270.982 335.208C275.79 335.703 280.739 336.282 285.828 336.945C288.868 337.339 291.946 337.761 295.064 338.211C299.797 338.891 304.605 339.629 309.446 340.417C314.295 341.214 319.172 342.056 324.077 342.942C325.316 343.169 326.555 343.395 327.802 343.63C329.322 343.915 330.842 344.206 332.362 344.502C333.321 344.687 334.279 344.871 335.237 345.064C336.377 345.291 337.526 345.517 338.666 345.744C346.175 347.253 353.643 348.864 360.929 350.55C362.127 350.827 363.325 351.112 364.515 351.389C366.894 351.951 369.251 352.521 371.586 353.1C372.23 353.259 372.867 353.418 373.503 353.578C375.097 353.98 376.675 354.383 378.236 354.786V354.794C378.327 354.811 378.418 354.836 378.509 354.861C379.649 355.155 380.781 355.448 381.904 355.75C384.556 356.455 387.164 357.165 389.728 357.881C391.429 358.367 393.115 358.845 394.775 359.332C397.262 360.07 399.699 360.808 402.07 361.546C402.656 361.731 403.243 361.915 403.821 362.091C405.556 362.645 407.258 363.196 408.926 363.744C410.248 364.18 411.537 364.625 412.809 365.069C414.081 365.514 415.329 365.958 416.551 366.403C417.344 366.688 418.121 366.982 418.889 367.267C420.013 367.686 421.103 368.106 422.177 368.533C422.508 368.659 422.83 368.793 423.152 368.919C423.755 369.154 424.342 369.397 424.92 369.641C425.308 369.791 425.688 369.951 426.068 370.119C426.44 370.27 426.82 370.429 427.183 370.588C427.555 370.739 427.919 370.899 428.282 371.066C428.588 371.192 428.885 371.326 429.174 371.461C429.761 371.721 430.347 371.981 430.917 372.249C431.198 372.383 431.479 372.509 431.76 372.643L432.404 372.945C432.495 372.996 432.586 373.038 432.677 373.08C433.379 373.415 434.057 373.751 434.717 374.086C435.337 374.405 435.94 374.724 436.518 375.034C437.204 375.403 437.857 375.764 438.485 376.133C438.608 376.2 438.732 376.275 438.856 376.342C439.278 376.586 439.682 376.837 440.087 377.08C440.88 377.575 441.632 378.062 442.334 378.548C443.028 379.035 443.673 379.513 444.276 379.991C444.276 379.999 444.276 379.999 444.284 379.999C444.573 380.234 444.854 380.469 445.118 380.696C445.548 381.073 445.944 381.434 446.308 381.803C446.43 381.917 446.545 382.037 446.655 382.163C446.703 382.204 446.747 382.249 446.787 382.298C446.96 382.491 447.134 382.684 447.299 382.876C447.497 383.111 447.679 383.346 447.853 383.581C447.935 383.698 448.026 383.816 448.101 383.933C448.2 384.076 448.299 384.227 448.381 384.369C448.456 384.487 448.522 384.613 448.588 384.73C448.763 385.032 448.912 385.35 449.034 385.678C449.124 385.902 449.199 386.131 449.257 386.366C449.32 386.589 449.367 386.816 449.398 387.045Z" fill="black"/>
</g>
<defs>
<clipPath id="clip0_50_52">
<rect width="650" height="480" fill="white"/>
</clipPath>
</defs>
</svg>
