<svg width="130" height="82" viewBox="0 0 130 82" fill="none" xmlns="http://www.w3.org/2000/svg">
<path d="M119.389 0H7.75406C7.35055 -4.99205e-07 6.951 0.0865187 6.57821 0.254618C6.20541 0.422717 5.86668 0.669102 5.58136 0.979709C5.29604 1.29032 5.06971 1.65906 4.91529 2.06489C4.76088 2.47072 4.6814 2.90568 4.6814 3.34494V71.0578C4.6814 71.4971 4.76087 71.932 4.91529 72.3379C5.0697 72.7437 5.29604 73.1124 5.58136 73.423C5.86668 73.7337 6.20541 73.98 6.57821 74.1481C6.951 74.3162 7.35055 74.4028 7.75406 74.4028H119.389C120.204 74.4028 120.986 74.0503 121.562 73.423C122.138 72.7957 122.462 71.9449 122.462 71.0578V3.34494C122.462 2.45781 122.138 1.60701 121.562 0.979712C120.986 0.352413 120.204 5.04097e-07 119.389 0V0Z" fill="#3F3D56"/>
<path d="M118.342 5.91144H8.80078V73.1797H118.342V5.91144Z" fill="#BFC1C4"/>
<path d="M63.4778 4.07685C64.0982 4.07685 64.6013 3.52927 64.6013 2.85379C64.6013 2.17832 64.0982 1.63074 63.4778 1.63074C62.8573 1.63074 62.3542 2.17832 62.3542 2.85379C62.3542 3.52927 62.8573 4.07685 63.4778 4.07685Z" fill="white"/>
<path d="M87.0151 73.1798H8.80078V5.91156L87.0151 73.1798Z" fill="#FDFDFD"/>
<path d="M25.9408 68.146C31.7561 68.146 36.4703 63.014 36.4703 56.6835C36.4703 50.3529 31.7561 45.2209 25.9408 45.2209C20.1256 45.2209 15.4114 50.3529 15.4114 56.6835C15.4114 63.014 20.1256 68.146 25.9408 68.146Z" fill="#DFDFE2"/>
<path d="M28.2846 65.2987C25.6942 65.2987 23.1619 64.4624 21.008 62.8957C18.8541 61.329 17.1753 59.1022 16.184 56.4968C15.1927 53.8915 14.9333 51.0246 15.4387 48.2588C15.9441 45.4929 17.1915 42.9524 19.0232 40.9583C20.855 38.9643 23.1887 37.6063 25.7294 37.0561C28.2701 36.506 30.9036 36.7883 33.2969 37.8675C35.6901 38.9467 37.7357 40.7742 39.1749 43.119C40.6141 45.4637 41.3822 48.2204 41.3822 51.0404C41.3822 52.9128 41.0435 54.7669 40.3852 56.4968C39.727 58.2267 38.7623 59.7985 37.546 61.1225C36.3298 62.4465 34.8859 63.4968 33.2969 64.2133C31.7078 64.9299 30.0046 65.2987 28.2846 65.2987V65.2987ZM28.2846 36.9685C25.728 36.9685 23.2288 37.7938 21.1031 39.3401C18.9774 40.8863 17.3206 43.084 16.3422 45.6553C15.3638 48.2266 15.1078 51.056 15.6066 53.7857C16.1054 56.5154 17.3365 59.0227 19.1443 60.9907C20.9521 62.9587 23.2553 64.2989 25.7628 64.8419C28.2703 65.3849 30.8693 65.1062 33.2313 64.0411C35.5933 62.9761 37.6121 61.1724 39.0325 58.8583C40.4529 56.5442 41.211 53.8236 41.211 51.0404C41.211 49.1925 40.8767 47.3626 40.2271 45.6554C39.5775 43.9481 38.6253 42.3968 37.425 41.0901C36.2246 39.7834 34.7996 38.7469 33.2313 38.0397C31.663 37.3325 29.9821 36.9686 28.2846 36.9686L28.2846 36.9685Z" fill="#3F3D56"/>
<path d="M92.9836 40.8593H82.7512V43.1868H92.9836V40.8593Z" fill="#6A6A6A"/>
<path d="M102.664 28.2495H73.0706V29.247H102.664V28.2495Z" fill="#6A6A6A"/>
<path d="M102.664 32.1686H73.0706V33.1662H102.664V32.1686Z" fill="#6A6A6A"/>
<path d="M102.664 36.0878H73.0706V37.0853H102.664V36.0878Z" fill="#6A6A6A"/>
<path d="M110.592 9.93719H106.316V14.5923H110.592V9.93719Z" fill="#6A6A6A"/>
<path d="M112.577 16.7536H107.385V11.101H112.577V16.7536ZM107.611 16.5079H112.352V11.3467H107.611L107.611 16.5079Z" fill="#6A6A6A"/>
<path d="M125.537 71.9567H114.847V71.1182C114.847 71.0963 114.843 71.0747 114.835 71.0545C114.827 71.0344 114.816 71.016 114.802 71.0006C114.788 70.9852 114.771 70.9729 114.752 70.9646C114.734 70.9562 114.714 70.9519 114.694 70.9519H111.029C111.009 70.9519 110.989 70.9562 110.97 70.9646C110.952 70.9729 110.935 70.9852 110.921 71.0006C110.907 71.016 110.895 71.0344 110.888 71.0545C110.88 71.0747 110.876 71.0963 110.876 71.1181V71.9567H108.585V71.1182C108.585 71.0963 108.581 71.0747 108.574 71.0545C108.566 71.0344 108.555 71.016 108.54 71.0006C108.526 70.9852 108.509 70.9729 108.491 70.9646C108.472 70.9562 108.452 70.9519 108.432 70.9519H104.767C104.747 70.9519 104.727 70.9562 104.709 70.9646C104.69 70.9729 104.673 70.9852 104.659 71.0006C104.645 71.016 104.634 71.0344 104.626 71.0545C104.618 71.0747 104.614 71.0963 104.614 71.1182V71.1182V71.9567H102.324V71.1182C102.324 71.0963 102.32 71.0747 102.312 71.0545C102.304 71.0344 102.293 71.016 102.279 71.0006C102.265 70.9852 102.248 70.9729 102.229 70.9646C102.211 70.9562 102.191 70.9519 102.171 70.9519H98.5055C98.4855 70.9519 98.4656 70.9562 98.4471 70.9646C98.4285 70.9729 98.4117 70.9852 98.3975 71.0006C98.3834 71.016 98.3721 71.0344 98.3644 71.0545C98.3567 71.0747 98.3528 71.0963 98.3528 71.1182V71.1182V71.9567H96.062V71.1182C96.062 71.0963 96.058 71.0747 96.0504 71.0545C96.0427 71.0344 96.0314 71.016 96.0173 71.0006C96.0031 70.9852 95.9862 70.9729 95.9677 70.9646C95.9492 70.9562 95.9293 70.9519 95.9093 70.9519H92.2439C92.2239 70.9519 92.204 70.9562 92.1855 70.9646C92.167 70.9729 92.1501 70.9852 92.1359 71.0006C92.1218 71.016 92.1105 71.0344 92.1028 71.0545C92.0952 71.0747 92.0912 71.0963 92.0912 71.1181V71.9567H89.8004V71.1182C89.8004 71.0963 89.7964 71.0747 89.7888 71.0545C89.7811 71.0344 89.7698 71.016 89.7557 71.0006C89.7415 70.9852 89.7247 70.9729 89.7061 70.9646C89.6876 70.9562 89.6677 70.9519 89.6477 70.9519H85.9824C85.9623 70.9519 85.9424 70.9562 85.9239 70.9646C85.9054 70.9729 85.8885 70.9852 85.8744 71.0006C85.8602 71.016 85.8489 71.0344 85.8413 71.0545C85.8336 71.0747 85.8296 71.0963 85.8296 71.1182V71.1182V71.9567H83.5388V71.1182C83.5388 71.0963 83.5349 71.0747 83.5272 71.0545C83.5195 71.0344 83.5082 71.016 83.4941 71.0006C83.4799 70.9852 83.4631 70.9729 83.4445 70.9646C83.426 70.9562 83.4061 70.9519 83.3861 70.9519H79.7208C79.7007 70.9519 79.6808 70.9562 79.6623 70.9646C79.6438 70.9729 79.6269 70.9852 79.6128 71.0006C79.5986 71.016 79.5873 71.0344 79.5797 71.0545C79.572 71.0747 79.568 71.0963 79.568 71.1182V71.1182V71.9567H77.2772V71.1182C77.2772 71.0963 77.2733 71.0747 77.2656 71.0545C77.2579 71.0344 77.2467 71.016 77.2325 71.0006C77.2183 70.9852 77.2015 70.9729 77.1829 70.9646C77.1644 70.9562 77.1446 70.9519 77.1245 70.9519H48.4128C48.3927 70.9519 48.3729 70.9562 48.3544 70.9646C48.3358 70.9729 48.319 70.9852 48.3048 71.0006C48.2906 71.016 48.2794 71.0344 48.2717 71.0545C48.264 71.0747 48.2601 71.0963 48.2601 71.1182V71.1182V71.9567H45.9693V71.1182C45.9693 71.0963 45.9653 71.0747 45.9576 71.0545C45.95 71.0344 45.9387 71.016 45.9245 71.0006C45.9103 70.9852 45.8935 70.9729 45.875 70.9646C45.8564 70.9562 45.8366 70.9519 45.8165 70.9519H42.1512C42.1312 70.9519 42.1113 70.9562 42.0928 70.9646C42.0742 70.9729 42.0574 70.9852 42.0432 71.0006C42.029 71.016 42.0178 71.0344 42.0101 71.0545C42.0024 71.0747 41.9985 71.0963 41.9985 71.1182V71.1182V71.9567H39.7077V71.1182C39.7077 71.0963 39.7037 71.0747 39.696 71.0545C39.6884 71.0344 39.6771 71.016 39.6629 71.0006C39.6488 70.9852 39.6319 70.9729 39.6134 70.9646C39.5949 70.9562 39.575 70.9519 39.555 70.9519H35.8896C35.8696 70.9519 35.8497 70.9562 35.8312 70.9646C35.8126 70.9729 35.7958 70.9852 35.7816 71.0006C35.7674 71.016 35.7562 71.0344 35.7485 71.0545C35.7408 71.0747 35.7369 71.0963 35.7369 71.1182V71.1182V71.9567H33.4461V71.1182C33.4461 71.0963 33.4421 71.0747 33.4344 71.0545C33.4268 71.0344 33.4155 71.016 33.4013 71.0006C33.3871 70.9852 33.3703 70.9729 33.3518 70.9646C33.3333 70.9562 33.3134 70.9519 33.2933 70.9519H29.628C29.608 70.9519 29.5881 70.9562 29.5696 70.9646C29.551 70.9729 29.5342 70.9852 29.52 71.0006C29.5058 71.016 29.4946 71.0344 29.4869 71.0545C29.4792 71.0747 29.4753 71.0963 29.4753 71.1182V71.1182V71.9567H27.1845V71.1182C27.1845 71.0963 27.1805 71.0747 27.1729 71.0545C27.1652 71.0344 27.1539 71.016 27.1397 71.0006C27.1256 70.9852 27.1087 70.9729 27.0902 70.9646C27.0717 70.9562 27.0518 70.9519 27.0318 70.9519H23.3664C23.3464 70.9519 23.3265 70.9562 23.308 70.9646C23.2895 70.9729 23.2726 70.9852 23.2584 71.0006C23.2443 71.016 23.233 71.0344 23.2253 71.0545C23.2177 71.0747 23.2137 71.0963 23.2137 71.1182V71.1182V71.9567H20.9229V71.1182C20.9229 71.0963 20.9189 71.0747 20.9113 71.0545C20.9036 71.0344 20.8923 71.016 20.8781 71.0006C20.864 70.9852 20.8471 70.9729 20.8286 70.9646C20.8101 70.9562 20.7902 70.9519 20.7702 70.9519H17.1048C17.0643 70.9519 17.0255 70.9694 16.9968 71.0006C16.9682 71.0318 16.9521 71.0741 16.9521 71.1181V71.9567H14.6613V71.1182C14.6613 71.0963 14.6573 71.0747 14.6497 71.0545C14.642 71.0344 14.6307 71.016 14.6166 71.0006C14.6024 70.9852 14.5855 70.9729 14.567 70.9646C14.5485 70.9562 14.5286 70.9519 14.5086 70.9519H10.8432C10.8027 70.9519 10.7639 70.9694 10.7353 71.0006C10.7066 71.0318 10.6905 71.0741 10.6905 71.1182V71.9567H3.66531C2.69321 71.9567 1.76093 72.377 1.07355 73.1253C0.386168 73.8736 0 74.8885 0 75.9468V77.751C2.31531e-06 78.8093 0.386169 79.8242 1.07355 80.5725C1.76093 81.3207 2.69321 81.7411 3.66531 81.7411H125.537C126.509 81.7411 127.442 81.3207 128.129 80.5725C128.816 79.8242 129.203 78.8093 129.203 77.751V75.9468C129.203 75.4228 129.108 74.9039 128.924 74.4198C128.739 73.9357 128.469 73.4959 128.129 73.1253C127.789 72.7548 127.385 72.4609 126.94 72.2604C126.495 72.0599 126.019 71.9567 125.537 71.9567V71.9567Z" fill="#3F3D56"/>
</svg>
