<svg width="510" height="392" viewBox="0 0 510 392" fill="none" xmlns="http://www.w3.org/2000/svg">
<rect width="510" height="392" fill="white"/>
<path d="M510 210.477V375.154C509.995 379.62 508.234 383.902 505.103 387.06C501.973 390.218 497.729 391.995 493.302 392H368.09L369.253 390.515L508.528 212.363L510 210.477Z" fill="#F2F2F2"/>
<path d="M172.506 163.333H28.7277C27.5496 163.333 26.4197 163.805 25.5867 164.646C24.7536 165.486 24.2856 166.626 24.2856 167.815C24.2856 169.003 24.7536 170.143 25.5867 170.983C26.4197 171.824 27.5496 172.296 28.7277 172.296H172.506C173.684 172.296 174.814 171.824 175.647 170.983C176.48 170.143 176.948 169.003 176.948 167.815C176.948 166.626 176.48 165.486 175.647 164.646C174.814 163.805 173.684 163.333 172.506 163.333Z" fill="#DFDFE2"/>
<path d="M71.0986 140.318H26.5199C25.3418 140.318 24.212 140.79 23.3789 141.631C22.5459 142.471 22.0779 143.611 22.0779 144.799C22.0779 145.988 22.5459 147.128 23.3789 147.968C24.212 148.809 25.3418 149.281 26.5199 149.281H71.0986C72.2768 149.281 73.4066 148.809 74.2397 147.968C75.0727 147.128 75.5407 145.988 75.5407 144.799C75.5407 143.611 75.0727 142.471 74.2397 141.631C73.4066 140.79 72.2768 140.318 71.0986 140.318H71.0986Z" fill="#DFDFE2"/>
<path d="M493.302 0H16.6983C12.2713 0.00537752 8.02707 1.7819 4.8967 4.9399C1.76632 8.0979 0.00533049 12.3795 0 16.8456V375.154C0.00533049 379.62 1.76632 383.902 4.8967 387.06C8.02707 390.218 12.2713 391.995 16.6983 392H493.302C497.729 391.995 501.973 390.218 505.103 387.06C508.234 383.902 509.995 379.62 510 375.154V16.8456C509.995 12.3795 508.234 8.0979 505.103 4.9399C501.973 1.7819 497.729 0.00537752 493.302 0ZM508.528 375.154C508.528 377.172 508.134 379.169 507.369 381.033C506.604 382.896 505.482 384.59 504.068 386.016C502.655 387.443 500.976 388.574 499.129 389.346C497.281 390.118 495.301 390.515 493.302 390.515H16.6983C12.66 390.515 8.78708 388.897 5.93158 386.016C3.07607 383.135 1.47186 379.228 1.47186 375.154V117.062C1.47186 86.4091 13.5422 57.0116 35.0276 35.3367C56.513 13.6617 85.6534 1.48485 116.038 1.48485H493.302C495.301 1.48485 497.281 1.88217 499.129 2.65412C500.976 3.42607 502.655 4.55754 504.068 5.98391C505.482 7.41029 506.604 9.10364 507.369 10.9673C508.134 12.831 508.528 14.8284 508.528 16.8456V375.154Z" fill="#6A6A6A"/>
<path d="M463.556 64.7903H46.4813C46.2861 64.7903 46.0989 64.7121 45.9609 64.5728C45.8229 64.4336 45.7454 64.2447 45.7454 64.0478C45.7454 63.8509 45.8229 63.6621 45.9609 63.5229C46.0989 63.3837 46.2861 63.3054 46.4813 63.3054H463.556C463.751 63.3054 463.938 63.3837 464.076 63.5229C464.214 63.6621 464.292 63.8509 464.292 64.0478C464.292 64.2447 464.214 64.4336 464.076 64.5728C463.938 64.7121 463.751 64.7903 463.556 64.7903Z" fill="#6A6A6A"/>
<path d="M67.3485 42.5024C70.7856 42.5024 73.572 39.6288 73.572 36.0841C73.572 32.5393 70.7856 29.6657 67.3485 29.6657C63.9113 29.6657 61.125 32.5393 61.125 36.0841C61.125 39.6288 63.9113 42.5024 67.3485 42.5024Z" fill="#6A6A6A"/>
<path d="M88.848 42.5024C92.2851 42.5024 95.0715 39.6288 95.0715 36.0841C95.0715 32.5393 92.2851 29.6657 88.848 29.6657C85.4109 29.6657 82.6245 32.5393 82.6245 36.0841C82.6245 39.6288 85.4109 42.5024 88.848 42.5024Z" fill="#6A6A6A"/>
<path d="M110.347 42.5024C113.784 42.5024 116.571 39.6288 116.571 36.0841C116.571 32.5393 113.784 29.6657 110.347 29.6657C106.91 29.6657 104.124 32.5393 104.124 36.0841C104.124 39.6288 106.91 42.5024 110.347 42.5024Z" fill="#6A6A6A"/>
<path d="M134.862 41.1569C134.764 41.157 134.667 41.1373 134.577 41.099C134.486 41.0606 134.404 41.0044 134.336 40.9336L130.137 36.603C130.002 36.4643 129.927 36.278 129.927 36.0839C129.927 35.8898 130.002 35.7035 130.137 35.5648L134.336 31.2346C134.403 31.1638 134.484 31.1072 134.573 31.0679C134.662 31.0287 134.758 31.0078 134.855 31.0062C134.953 31.0046 135.049 31.0225 135.139 31.0589C135.23 31.0952 135.312 31.1492 135.382 31.2178C135.451 31.2864 135.507 31.3682 135.545 31.4585C135.583 31.5488 135.602 31.6458 135.603 31.7439C135.604 31.842 135.585 31.9393 135.548 32.0301C135.511 32.1209 135.457 32.2034 135.388 32.2728L131.692 36.0839L135.388 39.8953C135.489 39.9998 135.558 40.1321 135.585 40.2757C135.612 40.4192 135.597 40.5677 135.54 40.7024C135.484 40.8371 135.39 40.952 135.269 41.0329C135.149 41.1137 135.007 41.1569 134.862 41.1569Z" fill="#6A6A6A"/>
<path d="M141.918 41.1569C141.774 41.1569 141.632 41.1137 141.511 41.0329C141.391 40.952 141.296 40.8371 141.24 40.7024C141.184 40.5677 141.169 40.4192 141.196 40.2757C141.223 40.1321 141.291 39.9998 141.392 39.8954L145.088 36.0839L141.392 32.2728C141.258 32.1316 141.185 31.9427 141.188 31.747C141.191 31.5514 141.27 31.3649 141.409 31.2281C141.548 31.0913 141.734 31.0153 141.928 31.0165C142.122 31.0177 142.308 31.0961 142.445 31.2346L146.643 35.5648C146.778 35.7035 146.853 35.8898 146.853 36.0839C146.853 36.278 146.778 36.4643 146.643 36.603L142.445 40.9336C142.376 41.0044 142.294 41.0606 142.204 41.099C142.114 41.1373 142.017 41.157 141.918 41.1569Z" fill="#6A6A6A"/>
<path d="M426.363 30.4088H418.555C418.343 30.4088 418.134 30.4508 417.938 30.5325C417.742 30.6142 417.565 30.7339 417.415 30.8849C417.265 31.0359 417.147 31.2152 417.066 31.4125C416.985 31.6098 416.943 31.8212 416.943 32.0347V39.9193C416.943 40.1328 416.985 40.3443 417.066 40.5416C417.147 40.7389 417.265 40.9181 417.415 41.0691C417.565 41.2201 417.742 41.3399 417.938 41.4216C418.134 41.5033 418.343 41.5453 418.555 41.5452H426.363C426.791 41.5456 427.202 41.3747 427.506 41.0699C427.809 40.7651 427.981 40.3513 427.982 39.9193V32.0347C427.981 31.6027 427.809 31.1889 427.506 30.8842C427.202 30.5794 426.791 30.4084 426.363 30.4088Z" fill="#6A6A6A"/>
<path d="M407.229 30.4088H399.421C399.209 30.4088 398.999 30.4508 398.804 30.5325C398.608 30.6142 398.43 30.7339 398.281 30.8849C398.131 31.0359 398.012 31.2152 397.931 31.4125C397.85 31.6098 397.809 31.8212 397.809 32.0347V39.9193C397.809 40.1328 397.85 40.3443 397.931 40.5416C398.012 40.7389 398.131 40.9181 398.281 41.0691C398.43 41.2201 398.608 41.3399 398.804 41.4216C398.999 41.5033 399.209 41.5453 399.421 41.5452H407.229C407.657 41.5456 408.068 41.3747 408.371 41.0699C408.675 40.7651 408.846 40.3513 408.848 39.9193V32.0347C408.846 31.6027 408.675 31.1889 408.371 30.8842C408.068 30.5794 407.657 30.4084 407.229 30.4088Z" fill="#6A6A6A"/>
<path d="M444.393 30.7801H436.585C436.373 30.78 436.164 30.822 435.968 30.9037C435.773 30.9854 435.595 31.1051 435.445 31.2561C435.296 31.4071 435.177 31.5864 435.096 31.7837C435.015 31.981 434.973 32.1924 434.973 32.406V40.2905C434.973 40.504 435.015 40.7155 435.096 40.9128C435.177 41.1101 435.296 41.2894 435.445 41.4403C435.595 41.5913 435.773 41.7111 435.968 41.7928C436.164 41.8745 436.373 41.9165 436.585 41.9164H444.393C444.822 41.9168 445.232 41.7459 445.536 41.4411C445.84 41.1363 446.011 40.7225 446.012 40.2905V32.406C446.011 31.9739 445.84 31.5602 445.536 31.2554C445.232 30.9506 444.822 30.7796 444.393 30.7801Z" fill="#6A6A6A"/>
<path d="M286.226 33.7794H223.812C223.29 33.7794 222.791 33.9883 222.422 34.36C222.054 34.7318 221.847 35.236 221.847 35.7617C221.847 36.2874 222.054 36.7916 222.422 37.1634C222.791 37.5351 223.29 37.744 223.812 37.744H286.226C286.747 37.744 287.247 37.5351 287.615 37.1634C287.984 36.7916 288.191 36.2874 288.191 35.7617C288.191 35.236 287.984 34.7318 287.615 34.36C287.247 33.9883 286.747 33.7794 286.226 33.7794Z" fill="#6A6A6A"/>
<path d="M79.2186 310.355L41.8945 309.164C36.7178 308.999 30.8964 309.008 27.2041 311.707C23.0134 314.77 23.6479 320.196 27.1273 323.716C30.6066 327.236 36.1623 329.247 41.6151 330.882C70.5842 339.569 102.645 341.332 133.775 339.367C164.905 337.401 195.394 331.845 225.734 326.307C228.611 325.782 231.872 325.026 233.046 323.006C234.181 321.052 232.696 318.695 230.388 317.432C228.081 316.169 225.156 315.743 222.335 315.368C171.226 308.592 119.565 307.105 68.157 310.931" fill="#929292"/>
<path d="M146.279 281.395V272.486C139.87 272.578 116.937 272.42 110.954 272.486C110.509 303.624 107.78 297.525 133.067 297.646C134.229 297.651 135.343 298.119 136.164 298.949C136.984 299.779 137.446 300.903 137.448 302.076V302.21C137.448 303.384 136.985 304.51 136.162 305.341C135.339 306.171 134.222 306.638 133.058 306.638H110.954V315.547H146.279C146.328 315.517 146.243 306.944 146.279 306.638C147.772 280.827 144.817 290.11 123.343 289.075C122.382 289.026 121.477 288.605 120.815 287.901C120.152 287.197 119.784 286.263 119.785 285.293V285.182C119.785 284.177 120.181 283.214 120.884 282.504C121.588 281.794 122.543 281.395 123.538 281.395H146.279Z" fill="#3F3D56"/>
<path d="M189.699 281.395V272.486C183.29 272.578 160.357 272.42 154.374 272.486C153.925 303.895 151.152 297.416 177.153 297.651C178.141 297.661 179.086 298.064 179.782 298.773C180.477 299.482 180.868 300.439 180.868 301.437C180.868 301.905 180.868 302.384 180.868 302.853C180.868 303.35 180.77 303.842 180.582 304.301C180.393 304.761 180.117 305.178 179.768 305.529C179.42 305.881 179.006 306.16 178.551 306.35C178.095 306.54 177.607 306.638 177.114 306.638H154.374V315.547H189.699C189.748 315.517 189.663 306.944 189.699 306.638C191.192 280.827 188.237 290.11 166.763 289.075C165.802 289.026 164.897 288.605 164.235 287.901C163.572 287.197 163.204 286.263 163.205 285.293V285.182C163.205 284.177 163.6 283.214 164.304 282.504C165.008 281.794 165.963 281.395 166.958 281.395H189.699Z" fill="#3F3D56"/>
<path d="M100.651 281.395V272.486H65.3263C65.3013 280.433 65.3443 301.465 65.3262 309.607C58.402 321.433 97.7384 313.246 100.653 315.55C100.651 315.547 100.651 306.638 100.651 306.638C73.774 306.496 73.0986 311.572 73.9632 287.016C74.0152 285.508 74.6453 284.079 75.7206 283.031C76.796 281.982 78.2328 281.396 79.7283 281.395C87.4984 281.395 100.651 281.395 100.651 281.395Z" fill="#3F3D56"/>
<path d="M213.894 221.976L176.57 220.983C171.393 220.846 165.572 220.853 161.879 223.103C157.689 225.656 158.323 230.18 161.803 233.114C165.282 236.048 170.838 237.724 176.29 239.087C205.259 246.328 237.32 247.798 268.45 246.159C299.58 244.521 330.07 239.889 360.409 235.273C363.286 234.836 366.548 234.206 367.721 232.522C368.856 230.893 367.371 228.928 365.064 227.875C362.757 226.822 359.832 226.468 357.01 226.154C305.815 220.504 254.236 219.267 202.832 222.456" fill="#929292"/>
<path d="M207.361 182.87C206.759 196.625 211.771 200.954 194.481 199.202C193.313 190.997 199.237 179.61 185.651 182.501C188.373 188.453 178.069 233.612 194.479 225.557C195.401 211.99 189.326 206.039 207.361 208.114C208.808 216.502 202.057 228.844 216.191 225.93C213.47 219.974 223.774 174.819 207.361 182.87Z" fill="#3F3D56"/>
<path d="M297.88 182.87C299.092 183.625 286.775 196.771 286.509 197.848C286.139 196.929 274.383 184.067 275.802 182.871C259.443 174.715 269.639 220.137 266.968 225.933C266.971 225.931 275.802 225.931 275.802 225.931V197.72C288.215 214.61 285.91 211.768 297.88 196.891L297.88 225.931C314.239 234.089 304.044 188.662 306.714 182.868C306.711 182.87 297.88 182.87 297.88 182.87Z" fill="#3F3D56"/>
<path d="M258.876 182.87H223.551C221.476 195.359 228.338 191.171 236.799 191.779L236.798 225.931H245.629V191.779C254.051 191.202 260.978 195.304 258.876 182.87Z" fill="#3F3D56"/>
<path d="M322.902 217.022C320.862 205.731 320.862 194.161 322.902 182.87H314.071C314.122 188.515 314.055 211.292 314.06 221.708C314.06 222.832 314.502 223.91 315.289 224.706C316.077 225.501 317.145 225.948 318.259 225.949C327.156 225.961 344.142 225.895 349.395 225.931L349.395 217.022H322.902Z" fill="#3F3D56"/>
<path d="M66.8034 112.849H30.909C29.1524 112.849 27.4677 113.552 26.2256 114.806C24.9834 116.059 24.2856 117.758 24.2856 119.53C24.2856 121.302 24.9834 123.002 26.2256 124.255C27.4677 125.508 29.1524 126.212 30.909 126.212H66.8034C68.5601 126.212 70.2448 125.508 71.4869 124.255C72.729 123.002 73.4268 121.302 73.4268 119.53C73.4268 117.758 72.729 116.059 71.4869 114.806C70.2448 113.552 68.5601 112.849 66.8034 112.849H66.8034Z" fill="#DFDFE2"/>
<path d="M419.033 384.255L411.747 384.254L408.28 355.901L419.034 355.902L419.033 384.255Z" fill="#FFB6B6"/>
<path d="M419.29 391.923L396.883 391.922V391.637C396.883 389.303 397.802 387.065 399.437 385.415C401.073 383.765 403.291 382.839 405.604 382.838H405.605L409.698 379.706L417.334 382.839L419.29 382.839L419.29 391.923Z" fill="#2F2E41"/>
<path d="M444.791 384.255L437.504 384.254L434.038 355.901L444.792 355.902L444.791 384.255Z" fill="#FFB6B6"/>
<path d="M445.047 391.923L422.64 391.922V391.637C422.641 389.303 423.559 387.065 425.195 385.415C426.831 383.765 429.049 382.839 431.362 382.838H431.362L435.455 379.706L443.092 382.839L445.048 382.839L445.047 391.923Z" fill="#2F2E41"/>
<path d="M400.891 229.766C400.891 229.766 393.88 251.488 395.174 254.347C396.468 257.206 398.676 254.978 396.468 257.205C394.26 259.433 392.333 257.065 394.401 260.847C396.468 264.63 399.6 295.767 400.978 297.274C402.356 298.781 404.25 298.822 402.567 300.286C400.884 301.751 398.676 298.781 400.884 301.751C403.091 304.721 408.95 373.228 408.95 373.228H420.394C420.394 373.228 423.245 369.914 421.631 367.757C420.018 365.599 421.773 364.768 421.631 363.328C421.49 361.887 422.026 358.782 422.126 357.365C422.226 355.948 424.16 322.191 419.513 302.69L427.986 265.56L432.223 310.437C432.223 310.437 427.501 348.079 432.223 360.18C432.223 360.18 428.416 363.378 430.105 365.231C431.793 367.084 433.265 365.599 431.793 367.084C430.321 368.569 434.001 373.766 434.001 373.766L446.511 373.024L453.593 302.69C453.593 302.69 454.786 295.356 453.593 294.099C452.399 292.842 452.399 297.296 452.399 292.842V286.902C452.399 286.902 457.735 250.372 457.643 248.22C457.55 246.069 448.719 230.478 448.719 230.478L400.891 229.766Z" fill="#595959"/>
<path d="M437.893 141.912L419.625 140.645L414.159 149.34L400.994 154.74V197.574C402.364 201.721 403.072 206.061 403.091 210.433C403.041 218.967 400.867 229.019 401.62 231.221C408.979 252.751 449.455 231.221 449.455 231.221L448.719 208.205L449.718 156.192L441.447 149.537L437.893 141.912Z" fill="#3F3D56"/>
<path d="M400.15 239.064L398.89 225.521L391.121 225.168L392.958 239.438C392.486 240.139 392.218 240.959 392.184 241.806C392.149 242.652 392.349 243.491 392.762 244.229C393.174 244.967 393.782 245.574 394.518 245.983C395.254 246.391 396.088 246.584 396.926 246.541C397.765 246.497 398.575 246.218 399.265 245.736C399.955 245.253 400.498 244.586 400.833 243.809C401.168 243.032 401.281 242.177 401.16 241.339C401.04 240.5 400.69 239.713 400.15 239.064L400.15 239.064Z" fill="#FFB6B6"/>
<path d="M403.973 153.598L403.757 153.634C401.754 153.977 399.864 154.807 398.25 156.052C396.636 157.298 395.348 158.922 394.496 160.783C392.271 165.637 385.047 197.545 388.214 202.357C390.67 206.089 390.073 205.361 388.919 208.176C387.764 210.991 385.904 207.987 387.428 212.455C388.953 216.923 390.627 216.286 389.213 218.012C387.798 219.738 386.347 219.4 387.723 222.291C389.098 225.182 388.875 226.158 389.135 227.247C389.395 228.336 389.169 235.994 389.169 235.994C389.169 235.994 397.467 235.359 401.597 237.35C401.597 237.35 399.293 229.616 400.596 228.377C401.899 227.139 403.462 226.99 402.346 225.187C401.23 223.385 398.7 223.309 401.454 222.409C404.208 221.509 403.321 205.366 403.321 205.366C407.857 193.383 406.064 173.673 403.973 153.598Z" fill="#E6E6E6"/>
<path d="M454.012 240.031L454.593 226.441L462.334 225.692L461.213 240.038C461.719 240.714 462.028 241.52 462.105 242.363C462.181 243.207 462.023 244.055 461.649 244.813C461.274 245.571 460.697 246.208 459.982 246.654C459.268 247.099 458.445 247.334 457.605 247.333C456.765 247.333 455.943 247.095 455.229 246.649C454.516 246.202 453.94 245.563 453.567 244.804C453.194 244.046 453.037 243.197 453.116 242.354C453.195 241.51 453.505 240.706 454.012 240.031Z" fill="#FFB6B6"/>
<path d="M445.92 154.867L446.137 154.893C448.154 155.133 450.084 155.866 451.758 157.028C453.432 158.19 454.8 159.746 455.744 161.561C458.208 166.296 466.006 198.362 464.097 202.763C462.316 206.867 462.39 205.858 463.684 208.61C464.978 211.363 466.685 208.268 465.386 212.808C464.088 217.348 462.383 216.796 463.882 218.449C465.381 220.101 466.814 219.689 465.584 222.646C464.355 225.604 464.627 226.567 464.422 227.668C464.216 228.768 464.825 236.405 464.825 236.405C464.825 236.405 456.506 236.194 452.481 238.392C452.481 238.392 454.395 230.551 453.032 229.38C451.669 228.21 450.1 228.14 451.124 226.283C452.149 224.426 454.672 224.221 451.876 223.463C449.081 222.704 449.16 206.537 449.16 206.537L445.92 154.867Z" fill="#E6E6E6"/>
<path d="M429.207 137.922C437.077 137.922 443.457 131.486 443.457 123.547C443.457 115.608 437.077 109.172 429.207 109.172C421.338 109.172 414.958 115.608 414.958 123.547C414.958 131.486 421.338 137.922 429.207 137.922Z" fill="#FFB6B6"/>
<path d="M439.124 135.852C441.106 134.287 441.298 131.305 442.989 129.425C445.817 126.282 447.145 122.9 445.664 119.175C444.354 115.881 444.632 111.832 441.811 109.712C443.197 109.205 443.523 108.154 442.3 108.135C441.476 108.122 438.402 109.712 439.881 107.731C441.36 105.751 438.56 106.533 438.745 105.722C438.93 104.911 440.118 104.462 440.642 105.105C440.199 104.649 439.66 104.302 439.064 104.088C438.469 103.875 437.832 103.802 437.205 103.874C436.577 103.947 435.973 104.163 435.441 104.507C434.908 104.85 434.46 105.312 434.132 105.856C432.465 103.336 430.696 101.603 428.146 103.202C425.641 104.772 425.674 106.713 422.98 106.247C421.714 106.028 421.595 108.441 420.73 109.399C420.33 109.908 419.81 110.309 419.217 110.564C418.625 110.819 417.979 110.92 417.338 110.858C416.075 110.618 415.11 109.031 415.817 107.949L412.842 114.796L411.643 113.313C409.737 114.565 410.363 117.834 412.281 119.067C414.199 120.3 416.692 120.037 418.9 119.49C421.559 118.832 424.304 118.602 427.034 118.81C431.204 119.404 434.108 124.433 432.564 128.386C434.166 126.799 437.13 128.116 437.96 130.221C438.79 132.326 438.181 134.697 437.566 136.875" fill="#2F2E41"/>
</svg>
